<svg width="414" height="516" viewBox="0 0 414 516" fill="none" xmlns="http://www.w3.org/2000/svg">
<path d="M217 0H197V500H217V0Z" fill="#E1B96B"/>
<g opacity="0.5">
<path d="M203 0L203 500" stroke="black"/>
<path d="M202 0L202 500" stroke="white"/>
<path d="M207 0L207 500" stroke="black"/>
<path d="M206 0L206 500" stroke="white"/>
<path d="M211 0L211 500" stroke="black"/>
<path d="M210 0L210 500" stroke="white"/>
</g>
<path opacity="0.7" d="M182 0H197V500H182V0Z" fill="url(#paint0_linear)"/>
<path opacity="0.7" d="M232 0H217V500H232V0Z" fill="url(#paint1_linear)"/>
<path d="M197 394H14.0001V501H197V394Z" fill="url(#paint2_radial)"/>
<path opacity="0.7" d="M182 394H197V500H182V394Z" fill="url(#paint3_linear)"/>
<path d="M14.0001 501H12.0001V394H14.0001V501Z" fill="url(#paint4_linear)"/>
<path d="M12.0001 394H6.10352e-05V501H12.0001V394Z" fill="#E1B96B"/>
<path d="M33.0001 394H14.0001V514H33.0001V394Z" fill="url(#paint5_linear)"/>
<rect x="3.05176e-05" y="501" width="207" height="15" fill="#E1B96B"/>
<path d="M20 500L12 501H207V500H20Z" fill="#634B1C"/>
<rect opacity="0.5" x="12.0001" y="394" width="185" height="24" fill="url(#paint6_linear)"/>
<rect x="3.05176e-05" y="379" width="185" height="15" fill="#E1B96B"/>
<path d="M197 258H14.0001V379H197V258Z" fill="url(#paint7_radial)"/>
<path opacity="0.7" d="M182 258H197V379H182V258Z" fill="url(#paint8_linear)"/>
<path d="M14 379H12V258H14V379Z" fill="url(#paint9_linear)"/>
<path d="M12.0001 258H6.10352e-05V379H12.0001V258Z" fill="#E1B96B"/>
<path d="M37.0001 258H14.0001V379H37.0001V258Z" fill="url(#paint10_linear)"/>
<path d="M199 379H198V394H199L203 390V382.5L199 379Z" fill="white"/>
<path d="M10 379H11V394H10L6 390V382.5L10 379Z" fill="white"/>
<path d="M11.3954 380H197.605L201 383.183V386.5V389.817L197.605 393H11.3954L8 389.817L8 386.5L8 383.183L11.3954 380Z" fill="#AF8C56" stroke="#3F2103" stroke-width="2"/>
<g opacity="0.5">
<path d="M9 389.5L200 389.5" stroke="white" stroke-width="0.5"/>
<path d="M9 389L200 389" stroke="black" stroke-width="0.5"/>
<path d="M9 386.5L200 386.5" stroke="white" stroke-width="0.5"/>
<path d="M9 386L200 386" stroke="black" stroke-width="0.5"/>
<path d="M9 383.5L200 383.5" stroke="white" stroke-width="0.5"/>
<path d="M9 383L200 383" stroke="black" stroke-width="0.5"/>
</g>
<path d="M111 394H99V501H111V394Z" fill="#E1B96B"/>
<path opacity="0.7" d="M84 394H99V501H84V394Z" fill="url(#paint11_linear)"/>
<path opacity="0.7" d="M126 394H111V501H126V394Z" fill="url(#paint12_linear)"/>
<rect opacity="0.5" x="12" y="258" width="185" height="23" fill="url(#paint13_linear)"/>
<path d="M217 394H400V501H217V394Z" fill="url(#paint14_radial)"/>
<path opacity="0.7" d="M232 394H217V500H232V394Z" fill="url(#paint15_linear)"/>
<path d="M400 501H402V394H400V501Z" fill="url(#paint16_linear)"/>
<path d="M402 394H414V501H402V394Z" fill="#E1B96B"/>
<path d="M381 394H400V514H381V394Z" fill="url(#paint17_linear)"/>
<rect width="207" height="15" transform="matrix(-1 0 0 1 414 501)" fill="#E1B96B"/>
<path d="M394 500L402 501H217V500H394Z" fill="#634B1C"/>
<rect opacity="0.5" width="185" height="24" transform="matrix(-1 0 0 1 402 394)" fill="url(#paint18_linear)"/>
<rect width="185" height="15" transform="matrix(-1 0 0 1 414 379)" fill="#E1B96B"/>
<path d="M217 258H400V379H217V258Z" fill="url(#paint19_radial)"/>
<path opacity="0.7" d="M232 258H217V379H232V258Z" fill="url(#paint20_linear)"/>
<path d="M400 379H402V258H400V379Z" fill="url(#paint21_linear)"/>
<path d="M402 258H414V379H402V258Z" fill="#E1B96B"/>
<path d="M377 258H400V379H377V258Z" fill="url(#paint22_linear)"/>
<path d="M404 379H403V394H404L408 390V382.5L404 379Z" fill="white"/>
<path d="M215 379H216V394H215L211 390V382.5L215 379Z" fill="white"/>
<path d="M216.395 380H402.605L406 383.183V386.5V389.817L402.605 393H216.395L213 389.817L213 386.5L213 383.183L216.395 380Z" fill="#AF8C56" stroke="#3F2103" stroke-width="2"/>
<g opacity="0.5">
<path d="M214 389.5L405 389.5" stroke="white" stroke-width="0.5"/>
<path d="M214 389L405 389" stroke="black" stroke-width="0.5"/>
<path d="M214 386.5L405 386.5" stroke="white" stroke-width="0.5"/>
<path d="M214 386L405 386" stroke="black" stroke-width="0.5"/>
<path d="M214 383.5L405 383.5" stroke="white" stroke-width="0.5"/>
<path d="M214 383L405 383" stroke="black" stroke-width="0.5"/>
</g>
<path d="M304 394H316V501H304V394Z" fill="#E1B96B"/>
<path opacity="0.7" d="M331 394H316V501H331V394Z" fill="url(#paint23_linear)"/>
<path opacity="0.7" d="M289 394H304V501H289V394Z" fill="url(#paint24_linear)"/>
<rect opacity="0.5" width="185" height="23" transform="matrix(-1 0 0 1 402 258)" fill="url(#paint25_linear)"/>
<path d="M197 136H14V243H197V136Z" fill="url(#paint26_radial)"/>
<path opacity="0.7" d="M182 136H197V243H182V136Z" fill="url(#paint27_linear)"/>
<path d="M14 243H12V136H14V243Z" fill="url(#paint28_linear)"/>
<path d="M12 136H0V258H12V136Z" fill="#E1B96B"/>
<path d="M33 136H14V256H33V136Z" fill="url(#paint29_linear)"/>
<path d="M199 243H198V258H199L203 254V246.5L199 243Z" fill="white"/>
<path d="M10 243H11V258H10L6 254V246.5L10 243Z" fill="white"/>
<path d="M11.3954 244H197.605L201 247.183V250.5V253.817L197.605 257H11.3954L8 253.817L8 250.5L8 247.183L11.3954 244Z" fill="#AF8C56" stroke="#3F2103" stroke-width="2"/>
<g opacity="0.5">
<path d="M9 253.5L200 253.5" stroke="white" stroke-width="0.5"/>
<path d="M9 253L200 253" stroke="black" stroke-width="0.5"/>
<path d="M9 250.5L200 250.5" stroke="white" stroke-width="0.5"/>
<path d="M9 250L200 250" stroke="black" stroke-width="0.5"/>
<path d="M9 247.5L200 247.5" stroke="white" stroke-width="0.5"/>
<path d="M9 247L200 247" stroke="black" stroke-width="0.5"/>
</g>
<rect opacity="0.5" x="12" y="136" width="185" height="24" fill="url(#paint30_linear)"/>
<path d="M197 0H14V121H197V0Z" fill="url(#paint31_radial)"/>
<path opacity="0.7" d="M182 0H197V121H182V0Z" fill="url(#paint32_linear)"/>
<path d="M14 121H12V0H14V121Z" fill="url(#paint33_linear)"/>
<path d="M12 0H0V136H12V0Z" fill="#E1B96B"/>
<path d="M37 0H14V121H37V0Z" fill="url(#paint34_linear)"/>
<path d="M199 121H198V136H199L203 132V124.5L199 121Z" fill="white"/>
<path d="M10 121H11V136H10L6 132V124.5L10 121Z" fill="white"/>
<path d="M11.3954 122H197.605L201 125.183V128.5V131.817L197.605 135H11.3954L8 131.817L8 128.5L8 125.183L11.3954 122Z" fill="#AF8C56" stroke="#3F2103" stroke-width="2"/>
<g opacity="0.5">
<path d="M9 131.5L200 131.5" stroke="white" stroke-width="0.5"/>
<path d="M9 131L200 131" stroke="black" stroke-width="0.5"/>
<path d="M9 128.5L200 128.5" stroke="white" stroke-width="0.5"/>
<path d="M9 128L200 128" stroke="black" stroke-width="0.5"/>
<path d="M9 125.5L200 125.5" stroke="white" stroke-width="0.5"/>
<path d="M9 125L200 125" stroke="black" stroke-width="0.5"/>
</g>
<rect opacity="0.5" x="12" width="185" height="23" fill="url(#paint35_linear)"/>
<path d="M111 135H99V242H111V135Z" fill="#E1B96B"/>
<path opacity="0.7" d="M84 135H99V242H84V135Z" fill="url(#paint36_linear)"/>
<path opacity="0.7" d="M126 135H111V242H126V135Z" fill="url(#paint37_linear)"/>
<path d="M217 136H400V243H217V136Z" fill="url(#paint38_radial)"/>
<path opacity="0.7" d="M232 136H217V243H232V136Z" fill="url(#paint39_linear)"/>
<path d="M400 243H402V136H400V243Z" fill="url(#paint40_linear)"/>
<path d="M402 136H414V258H402V136Z" fill="#E1B96B"/>
<path d="M381 136H400V256H381V136Z" fill="url(#paint41_linear)"/>
<path d="M404 243H403V258H404L408 254V246.5L404 243Z" fill="white"/>
<path d="M215 243H216V258H215L211 254V246.5L215 243Z" fill="white"/>
<path d="M216.395 244H402.605L406 247.183V250.5V253.817L402.605 257H216.395L213 253.817L213 250.5L213 247.183L216.395 244Z" fill="#AF8C56" stroke="#3F2103" stroke-width="2"/>
<g opacity="0.5">
<path d="M214 253.5L405 253.5" stroke="white" stroke-width="0.5"/>
<path d="M214 253L405 253" stroke="black" stroke-width="0.5"/>
<path d="M214 250.5L405 250.5" stroke="white" stroke-width="0.5"/>
<path d="M214 250L405 250" stroke="black" stroke-width="0.5"/>
<path d="M214 247.5L405 247.5" stroke="white" stroke-width="0.5"/>
<path d="M214 247L405 247" stroke="black" stroke-width="0.5"/>
</g>
<rect opacity="0.5" width="185" height="24" transform="matrix(-1 0 0 1 402 136)" fill="url(#paint42_linear)"/>
<path d="M304 136H316V243H304V136Z" fill="#E1B96B"/>
<path opacity="0.7" d="M331 136H316V243H331V136Z" fill="url(#paint43_linear)"/>
<path opacity="0.7" d="M289 136H304V243H289V136Z" fill="url(#paint44_linear)"/>
<path d="M217 0H400V121H217V0Z" fill="url(#paint45_radial)"/>
<path opacity="0.7" d="M232 0H217V121H232V0Z" fill="url(#paint46_linear)"/>
<path d="M400 121H402V0H400V121Z" fill="url(#paint47_linear)"/>
<path d="M402 0H414V136H402V0Z" fill="#E1B96B"/>
<path d="M377 0H400V121H377V0Z" fill="url(#paint48_linear)"/>
<path d="M404 121H403V136H404L408 132V124.5L404 121Z" fill="white"/>
<path d="M215 121H216V136H215L211 132V124.5L215 121Z" fill="white"/>
<path d="M216.396 122H402.605L406 125.183V128.5V131.817L402.605 135H216.396L213 131.817L213 128.5L213 125.183L216.396 122Z" fill="#AF8C56" stroke="#3F2103" stroke-width="2"/>
<g opacity="0.5">
<path d="M214 131.5L405 131.5" stroke="white" stroke-width="0.5"/>
<path d="M214 131L405 131" stroke="black" stroke-width="0.5"/>
<path d="M214 128.5L405 128.5" stroke="white" stroke-width="0.5"/>
<path d="M214 128L405 128" stroke="black" stroke-width="0.5"/>
<path d="M214 125.5L405 125.5" stroke="white" stroke-width="0.5"/>
<path d="M214 125L405 125" stroke="black" stroke-width="0.5"/>
</g>
<rect opacity="0.5" width="185" height="23" transform="matrix(-1 0 0 1 402 0)" fill="url(#paint49_linear)"/>
<defs>
<linearGradient id="paint0_linear" x1="197" y1="250" x2="182" y2="250" gradientUnits="userSpaceOnUse">
<stop stop-color="#634B1C"/>
<stop offset="1" stop-color="#BC974F" stop-opacity="0"/>
</linearGradient>
<linearGradient id="paint1_linear" x1="217" y1="250" x2="232" y2="250" gradientUnits="userSpaceOnUse">
<stop stop-color="#634B1C"/>
<stop offset="1" stop-color="#BC974F" stop-opacity="0"/>
</linearGradient>
<radialGradient id="paint2_radial" cx="0" cy="0" r="1" gradientUnits="userSpaceOnUse" gradientTransform="translate(105.5 447.5) rotate(154.336) scale(123.53 72.9244)">
<stop stop-color="#FFDA94"/>
<stop offset="1" stop-color="#B48427"/>
</radialGradient>
<linearGradient id="paint3_linear" x1="197" y1="447" x2="182" y2="447" gradientUnits="userSpaceOnUse">
<stop stop-color="#634B1C"/>
<stop offset="1" stop-color="#BC974F" stop-opacity="0"/>
</linearGradient>
<linearGradient id="paint4_linear" x1="15.0001" y1="444.647" x2="12.0001" y2="444.647" gradientUnits="userSpaceOnUse">
<stop stop-color="#473512"/>
<stop offset="1" stop-color="#BC974F"/>
</linearGradient>
<linearGradient id="paint5_linear" x1="14.0001" y1="454" x2="33.0001" y2="454" gradientUnits="userSpaceOnUse">
<stop stop-color="#634B1C"/>
<stop offset="1" stop-color="#BC974F" stop-opacity="0"/>
</linearGradient>
<linearGradient id="paint6_linear" x1="104.5" y1="388" x2="104.5" y2="418" gradientUnits="userSpaceOnUse">
<stop/>
<stop offset="1" stop-opacity="0"/>
</linearGradient>
<radialGradient id="paint7_radial" cx="0" cy="0" r="1" gradientUnits="userSpaceOnUse" gradientTransform="translate(105.5 318.5) rotate(151.482) scale(126.719 80.3907)">
<stop stop-color="#FFDA94"/>
<stop offset="1" stop-color="#B48427"/>
</radialGradient>
<linearGradient id="paint8_linear" x1="197" y1="318.5" x2="182" y2="318.5" gradientUnits="userSpaceOnUse">
<stop stop-color="#634B1C"/>
<stop offset="1" stop-color="#BC974F" stop-opacity="0"/>
</linearGradient>
<linearGradient id="paint9_linear" x1="15" y1="315.273" x2="12" y2="315.273" gradientUnits="userSpaceOnUse">
<stop stop-color="#473512"/>
<stop offset="1" stop-color="#BC974F"/>
</linearGradient>
<linearGradient id="paint10_linear" x1="14.0001" y1="318.5" x2="37.0001" y2="318.5" gradientUnits="userSpaceOnUse">
<stop stop-color="#634B1C"/>
<stop offset="1" stop-color="#BC974F" stop-opacity="0"/>
</linearGradient>
<linearGradient id="paint11_linear" x1="99" y1="447.5" x2="84" y2="447.5" gradientUnits="userSpaceOnUse">
<stop stop-color="#634B1C"/>
<stop offset="1" stop-color="#BC974F" stop-opacity="0"/>
</linearGradient>
<linearGradient id="paint12_linear" x1="111" y1="447.5" x2="126" y2="447.5" gradientUnits="userSpaceOnUse">
<stop stop-color="#634B1C"/>
<stop offset="1" stop-color="#BC974F" stop-opacity="0"/>
</linearGradient>
<linearGradient id="paint13_linear" x1="104.5" y1="252.25" x2="104.5" y2="281" gradientUnits="userSpaceOnUse">
<stop/>
<stop offset="1" stop-opacity="0"/>
</linearGradient>
<radialGradient id="paint14_radial" cx="0" cy="0" r="1" gradientUnits="userSpaceOnUse" gradientTransform="translate(308.5 447.5) rotate(25.6641) scale(123.53 72.9244)">
<stop stop-color="#FFDA94"/>
<stop offset="1" stop-color="#B48427"/>
</radialGradient>
<linearGradient id="paint15_linear" x1="217" y1="447" x2="232" y2="447" gradientUnits="userSpaceOnUse">
<stop stop-color="#634B1C"/>
<stop offset="1" stop-color="#BC974F" stop-opacity="0"/>
</linearGradient>
<linearGradient id="paint16_linear" x1="399" y1="444.647" x2="402" y2="444.647" gradientUnits="userSpaceOnUse">
<stop stop-color="#473512"/>
<stop offset="1" stop-color="#BC974F"/>
</linearGradient>
<linearGradient id="paint17_linear" x1="400" y1="454" x2="381" y2="454" gradientUnits="userSpaceOnUse">
<stop stop-color="#634B1C"/>
<stop offset="1" stop-color="#BC974F" stop-opacity="0"/>
</linearGradient>
<linearGradient id="paint18_linear" x1="92.5" y1="-6" x2="92.5" y2="24" gradientUnits="userSpaceOnUse">
<stop/>
<stop offset="1" stop-opacity="0"/>
</linearGradient>
<radialGradient id="paint19_radial" cx="0" cy="0" r="1" gradientUnits="userSpaceOnUse" gradientTransform="translate(308.5 318.5) rotate(28.5181) scale(126.719 80.3907)">
<stop stop-color="#FFDA94"/>
<stop offset="1" stop-color="#B48427"/>
</radialGradient>
<linearGradient id="paint20_linear" x1="217" y1="318.5" x2="232" y2="318.5" gradientUnits="userSpaceOnUse">
<stop stop-color="#634B1C"/>
<stop offset="1" stop-color="#BC974F" stop-opacity="0"/>
</linearGradient>
<linearGradient id="paint21_linear" x1="399" y1="315.273" x2="402" y2="315.273" gradientUnits="userSpaceOnUse">
<stop stop-color="#473512"/>
<stop offset="1" stop-color="#BC974F"/>
</linearGradient>
<linearGradient id="paint22_linear" x1="400" y1="318.5" x2="377" y2="318.5" gradientUnits="userSpaceOnUse">
<stop stop-color="#634B1C"/>
<stop offset="1" stop-color="#BC974F" stop-opacity="0"/>
</linearGradient>
<linearGradient id="paint23_linear" x1="316" y1="447.5" x2="331" y2="447.5" gradientUnits="userSpaceOnUse">
<stop stop-color="#634B1C"/>
<stop offset="1" stop-color="#BC974F" stop-opacity="0"/>
</linearGradient>
<linearGradient id="paint24_linear" x1="304" y1="447.5" x2="289" y2="447.5" gradientUnits="userSpaceOnUse">
<stop stop-color="#634B1C"/>
<stop offset="1" stop-color="#BC974F" stop-opacity="0"/>
</linearGradient>
<linearGradient id="paint25_linear" x1="92.5" y1="-5.75" x2="92.5" y2="23" gradientUnits="userSpaceOnUse">
<stop/>
<stop offset="1" stop-opacity="0"/>
</linearGradient>
<radialGradient id="paint26_radial" cx="0" cy="0" r="1" gradientUnits="userSpaceOnUse" gradientTransform="translate(105.5 189.5) rotate(154.336) scale(123.53 72.9244)">
<stop stop-color="#FFDA94"/>
<stop offset="1" stop-color="#B48427"/>
</radialGradient>
<linearGradient id="paint27_linear" x1="197" y1="189.5" x2="182" y2="189.5" gradientUnits="userSpaceOnUse">
<stop stop-color="#634B1C"/>
<stop offset="1" stop-color="#BC974F" stop-opacity="0"/>
</linearGradient>
<linearGradient id="paint28_linear" x1="15" y1="186.647" x2="12" y2="186.647" gradientUnits="userSpaceOnUse">
<stop stop-color="#473512"/>
<stop offset="1" stop-color="#BC974F"/>
</linearGradient>
<linearGradient id="paint29_linear" x1="14" y1="196" x2="33" y2="196" gradientUnits="userSpaceOnUse">
<stop stop-color="#634B1C"/>
<stop offset="1" stop-color="#BC974F" stop-opacity="0"/>
</linearGradient>
<linearGradient id="paint30_linear" x1="104.5" y1="130" x2="104.5" y2="160" gradientUnits="userSpaceOnUse">
<stop/>
<stop offset="1" stop-opacity="0"/>
</linearGradient>
<radialGradient id="paint31_radial" cx="0" cy="0" r="1" gradientUnits="userSpaceOnUse" gradientTransform="translate(105.5 60.5) rotate(151.482) scale(126.719 80.3907)">
<stop stop-color="#FFDA94"/>
<stop offset="1" stop-color="#B48427"/>
</radialGradient>
<linearGradient id="paint32_linear" x1="197" y1="60.5" x2="182" y2="60.5" gradientUnits="userSpaceOnUse">
<stop stop-color="#634B1C"/>
<stop offset="1" stop-color="#BC974F" stop-opacity="0"/>
</linearGradient>
<linearGradient id="paint33_linear" x1="15" y1="57.2733" x2="12" y2="57.2733" gradientUnits="userSpaceOnUse">
<stop stop-color="#473512"/>
<stop offset="1" stop-color="#BC974F"/>
</linearGradient>
<linearGradient id="paint34_linear" x1="14" y1="60.5" x2="37" y2="60.5" gradientUnits="userSpaceOnUse">
<stop stop-color="#634B1C"/>
<stop offset="1" stop-color="#BC974F" stop-opacity="0"/>
</linearGradient>
<linearGradient id="paint35_linear" x1="104.5" y1="-5.75" x2="104.5" y2="23" gradientUnits="userSpaceOnUse">
<stop/>
<stop offset="1" stop-opacity="0"/>
</linearGradient>
<linearGradient id="paint36_linear" x1="99" y1="188.5" x2="84" y2="188.5" gradientUnits="userSpaceOnUse">
<stop stop-color="#634B1C"/>
<stop offset="1" stop-color="#BC974F" stop-opacity="0"/>
</linearGradient>
<linearGradient id="paint37_linear" x1="111" y1="188.5" x2="126" y2="188.5" gradientUnits="userSpaceOnUse">
<stop stop-color="#634B1C"/>
<stop offset="1" stop-color="#BC974F" stop-opacity="0"/>
</linearGradient>
<radialGradient id="paint38_radial" cx="0" cy="0" r="1" gradientUnits="userSpaceOnUse" gradientTransform="translate(308.5 189.5) rotate(25.6641) scale(123.53 72.9244)">
<stop stop-color="#FFDA94"/>
<stop offset="1" stop-color="#B48427"/>
</radialGradient>
<linearGradient id="paint39_linear" x1="217" y1="189.5" x2="232" y2="189.5" gradientUnits="userSpaceOnUse">
<stop stop-color="#634B1C"/>
<stop offset="1" stop-color="#BC974F" stop-opacity="0"/>
</linearGradient>
<linearGradient id="paint40_linear" x1="399" y1="186.647" x2="402" y2="186.647" gradientUnits="userSpaceOnUse">
<stop stop-color="#473512"/>
<stop offset="1" stop-color="#BC974F"/>
</linearGradient>
<linearGradient id="paint41_linear" x1="400" y1="196" x2="381" y2="196" gradientUnits="userSpaceOnUse">
<stop stop-color="#634B1C"/>
<stop offset="1" stop-color="#BC974F" stop-opacity="0"/>
</linearGradient>
<linearGradient id="paint42_linear" x1="92.5" y1="-6" x2="92.5" y2="24" gradientUnits="userSpaceOnUse">
<stop/>
<stop offset="1" stop-opacity="0"/>
</linearGradient>
<linearGradient id="paint43_linear" x1="316" y1="189.5" x2="331" y2="189.5" gradientUnits="userSpaceOnUse">
<stop stop-color="#634B1C"/>
<stop offset="1" stop-color="#BC974F" stop-opacity="0"/>
</linearGradient>
<linearGradient id="paint44_linear" x1="304" y1="189.5" x2="289" y2="189.5" gradientUnits="userSpaceOnUse">
<stop stop-color="#634B1C"/>
<stop offset="1" stop-color="#BC974F" stop-opacity="0"/>
</linearGradient>
<radialGradient id="paint45_radial" cx="0" cy="0" r="1" gradientUnits="userSpaceOnUse" gradientTransform="translate(308.5 60.5) rotate(28.5181) scale(126.719 80.3907)">
<stop stop-color="#FFDA94"/>
<stop offset="1" stop-color="#B48427"/>
</radialGradient>
<linearGradient id="paint46_linear" x1="217" y1="60.5" x2="232" y2="60.5" gradientUnits="userSpaceOnUse">
<stop stop-color="#634B1C"/>
<stop offset="1" stop-color="#BC974F" stop-opacity="0"/>
</linearGradient>
<linearGradient id="paint47_linear" x1="399" y1="57.2733" x2="402" y2="57.2733" gradientUnits="userSpaceOnUse">
<stop stop-color="#473512"/>
<stop offset="1" stop-color="#BC974F"/>
</linearGradient>
<linearGradient id="paint48_linear" x1="400" y1="60.5" x2="377" y2="60.5" gradientUnits="userSpaceOnUse">
<stop stop-color="#634B1C"/>
<stop offset="1" stop-color="#BC974F" stop-opacity="0"/>
</linearGradient>
<linearGradient id="paint49_linear" x1="92.5" y1="-5.75" x2="92.5" y2="23" gradientUnits="userSpaceOnUse">
<stop/>
<stop offset="1" stop-opacity="0"/>
</linearGradient>
</defs>
</svg>
