<svg width="30" height="30" viewBox="0 0 30 30" fill="none" xmlns="http://www.w3.org/2000/svg">
<path d="M17.0923 9.44925L17.0435 9.30048C17.0985 9.19617 17.1296 9.07733 17.1296 8.95122V7C17.1296 6.58579 16.7938 6.25 16.3796 6.25H13.9204C13.5062 6.25 13.1704 6.58579 13.1704 7V8.95122C13.1704 9.07733 13.2016 9.19617 13.2566 9.30048L13.2078 9.44925C12.9844 10.1306 12.8706 10.8431 12.8706 11.5601V12.1624L11.9086 12.682C11.3073 13.0067 10.95 13.6518 10.9938 14.3337L11.4925 22.112C11.5516 23.0331 12.3159 23.75 13.2389 23.75H16.7612C17.6842 23.75 18.4486 23.0331 18.5076 22.112L19.0083 14.3044C19.0503 13.649 18.7219 13.0253 18.1577 12.6891L17.3095 12.1836V11.5297C17.3095 10.8612 17.2445 10.1942 17.1155 9.53815C17.1096 9.50807 17.1018 9.47838 17.0923 9.44925Z" stroke="#E1B96B" stroke-width="1.5" stroke-linejoin="round"/>
<path d="M20.2625 23H23.5641C24.0989 23 24.5391 22.5792 24.5631 22.0449L24.9732 12.9147C24.9897 12.5467 24.8026 12.1994 24.4861 12.0108L23.6085 11.4878V10.6238C23.6085 10.1278 23.5603 9.63299 23.4646 9.14634V9.14634L23.2726 8.56098H23.4646V7H21.4972V8.56098H21.6892L21.4972 9.14634V9.14634C21.3383 9.63107 21.2573 10.138 21.2573 10.6481V11.4878L20.4896 11.9024" stroke="#E1B96B" stroke-width="1.5" stroke-linejoin="round"/>
<path d="M9.73756 23H6.43593C5.9011 23 5.46094 22.5792 5.43694 22.0449L5.02685 12.9147C5.01032 12.5467 5.19746 12.1994 5.51391 12.0108L6.39152 11.4878V10.6238C6.39152 10.1278 6.43973 9.63299 6.53547 9.14634V9.14634L6.72741 8.56098H6.53547V7H8.50279V8.56098H8.31086L8.50279 9.14634V9.14634C8.66173 9.63107 8.74271 10.138 8.74271 10.6481V11.4878L9.51044 11.9024" stroke="#E1B96B" stroke-width="1.5" stroke-linejoin="round"/>
</svg>
