<svg width="28" height="28" viewBox="0 0 28 28" fill="none" xmlns="http://www.w3.org/2000/svg">
<path d="M28 14.0001C28 6.26734 21.7328 0.00012207 14 0.00012207C6.26722 0.00012207 0 6.26734 0 14.0001C0 20.9892 5.11875 26.7806 11.8125 27.8306V18.047H8.25778V14.0001H11.8125V10.9157C11.8125 7.40752 13.9016 5.46887 17.1008 5.46887C18.632 5.46887 20.2344 5.74231 20.2344 5.74231V9.18762H18.468C16.7289 9.18762 16.1875 10.2677 16.1875 11.3751V14.0001H20.0703L19.4496 18.047H16.1875V27.8306C22.8813 26.7806 28 20.9892 28 14.0001Z" fill="#1877F2"/>
<path d="M19.4496 18.047L20.0703 14.0001H16.1875V11.3751C16.1875 10.2677 16.7289 9.18762 18.468 9.18762H20.2344V5.74231C20.2344 5.74231 18.632 5.46887 17.1008 5.46887C13.9016 5.46887 11.8125 7.40752 11.8125 10.9157V14.0001H8.25778V18.047H11.8125V27.8306C12.5261 27.9427 13.2562 28.0001 14 28.0001C14.7437 28.0001 15.4738 27.9427 16.1875 27.8306V18.047H19.4496Z" fill="white"/>
</svg>
