<svg width="28" height="32" viewBox="0 0 28 32" fill="none" xmlns="http://www.w3.org/2000/svg">
<path fill-rule="evenodd" clip-rule="evenodd" d="M1.50302 1C1.1961 1 0.961627 1.27396 1.00901 1.57719L3.85346 19.7803C3.86543 19.8569 3.87144 19.9343 3.87144 20.0119V25.3306C3.87144 25.6068 4.0953 25.8306 4.37144 25.8306H23.6292C23.9053 25.8306 24.1292 25.6068 24.1292 25.3306V20.0119C24.1292 19.9343 24.1352 19.8569 24.1472 19.7803L26.9916 1.5772C27.039 1.27396 26.8045 1 26.4976 1H1.50302ZM0.0210011 1.73158C-0.121153 0.821864 0.58226 0 1.50302 0H26.4976C27.4184 0 28.1218 0.821866 27.9796 1.73158L25.1352 19.9347C25.1312 19.9602 25.1292 19.986 25.1292 20.0119V25.3306C25.1292 25.775 24.9359 26.1742 24.6289 26.4489V32H3.37117V26.4484C3.06445 26.1738 2.87144 25.7747 2.87144 25.3306V20.0119C2.87144 19.986 2.86944 19.9602 2.86545 19.9347L0.0210011 1.73158ZM6.66101 19.9342V23.0203H21.339V19.9342L22.8574 10.9668C22.8574 10.9668 18.8806 7.88269 14 10.9668C9.11936 14.0509 5.1426 10.9668 5.1426 10.9668L6.66101 19.9342Z" fill="url(#paint0_radial)"/>
<defs>
<radialGradient id="paint0_radial" cx="0" cy="0" r="1" gradientUnits="userSpaceOnUse" gradientTransform="translate(14.0004 16) rotate(136.792) scale(23.3695 17.6358)">
<stop stop-color="#FFDA94"/>
<stop offset="1" stop-color="#B48427"/>
</radialGradient>
</defs>
</svg>
