<svg width="42" height="42" viewBox="0 0 42 42" fill="none" xmlns="http://www.w3.org/2000/svg">
<path fill-rule="evenodd" clip-rule="evenodd" d="M21 41.0009C9.95356 41.0009 1 32.0456 1 21C1 9.95442 9.95356 1 21 1C32.0456 1 41 9.95442 41 21C41 32.0456 32.0456 41.0009 21 41.0009Z" fill="#634B1C" stroke="#634B1C" stroke-width="2"/>
<path d="M28 23.3335V26.4446C28 26.8572 27.8361 27.2528 27.5444 27.5446C27.2527 27.8363 26.857 28.0002 26.4444 28.0002H15.5556C15.143 28.0002 14.7473 27.8363 14.4556 27.5446C14.1639 27.2528 14 26.8572 14 26.4446V23.3335" stroke="#E1B96B" stroke-linecap="round" stroke-linejoin="round"/>
<path d="M17.1108 19.4448L20.9997 23.3337L24.8886 19.4448" stroke="#E1B96B" stroke-linecap="round" stroke-linejoin="round"/>
<path d="M21 23.3333V14" stroke="#E1B96B" stroke-linecap="round" stroke-linejoin="round"/>
</svg>
