<svg width="42" height="43" viewBox="0 0 42 43" fill="none" xmlns="http://www.w3.org/2000/svg">
<path fill-rule="evenodd" clip-rule="evenodd" d="M21 41.0017C9.95356 41.0017 1 32.0473 1 21.0009C1 9.95529 9.95356 1 21 1C32.0456 1 41 9.95529 41 21.0009C41 32.0473 32.0456 41.0017 21 41.0017Z" stroke="#634B1C" stroke-width="2"/>
<path fill-rule="evenodd" clip-rule="evenodd" d="M18.2975 31.7203H22.615V20.9098H25.6265L25.9476 17.2905H22.615C22.615 17.2905 22.615 15.9388 22.615 15.2294C22.615 14.3754 22.7855 14.0379 23.6111 14.0379C24.2757 14.0379 25.9476 14.0379 25.9476 14.0379V10.2817C25.9476 10.2817 23.4846 10.2817 22.9577 10.2817C19.7456 10.2817 18.2975 11.6971 18.2975 14.4047C18.2975 16.7636 18.2975 17.2905 18.2975 17.2905H16.0522V20.9554H18.2975V31.7203Z" fill="#634B1C"/>
</svg>
