<svg width="42" height="42" viewBox="0 0 42 42" fill="none" xmlns="http://www.w3.org/2000/svg">
<path fill-rule="evenodd" clip-rule="evenodd" d="M21 40.9991C9.95403 40.9991 1 32.0443 1 20.9991C1 9.95403 9.95403 1 21 1C32.046 1 41 9.95403 41 20.9991C41 32.0443 32.046 40.9991 21 40.9991Z" stroke="#634B1C" stroke-width="2"/>
<path fill-rule="evenodd" clip-rule="evenodd" d="M21.0001 11.2764C18.3598 11.2764 18.0284 11.2876 16.991 11.3349C15.9562 11.3823 15.2494 11.5467 14.6313 11.7869C13.9917 12.0348 13.4493 12.3671 12.9087 12.9086C12.3681 13.4484 12.0358 13.9916 11.7878 14.6304C11.5477 15.2493 11.3824 15.9553 11.3359 16.99C11.2877 18.0283 11.2773 18.3588 11.2773 20.9992C11.2773 23.6404 11.2877 23.9709 11.3359 25.0083C11.3824 26.0431 11.5477 26.7499 11.7878 27.3688C12.0358 28.0076 12.3681 28.55 12.9087 29.0906C13.4493 29.6312 13.9917 29.9635 14.6313 30.2123C15.2494 30.4525 15.9562 30.6169 16.991 30.6643C18.0284 30.7108 18.3598 30.7228 21.0001 30.7228C23.6405 30.7228 23.9719 30.7108 25.0093 30.6643C26.044 30.6169 26.7508 30.4525 27.3689 30.2123C28.0086 29.9635 28.5509 29.6312 29.0916 29.0906C29.6313 28.55 29.9645 28.0076 30.2133 27.3688C30.4535 26.7499 30.617 26.0431 30.6653 25.0083C30.7117 23.9709 30.7238 23.6404 30.7238 20.9992C30.7238 18.3588 30.7117 18.0283 30.6653 16.99C30.617 15.9553 30.4535 15.2493 30.2133 14.6304C29.9645 13.9916 29.6313 13.4484 29.0916 12.9086C28.5509 12.3671 28.0086 12.0348 27.3689 11.7869C26.7508 11.5467 26.044 11.3823 25.0093 11.3349C23.9719 11.2876 23.6405 11.2764 21.0001 11.2764ZM21.0001 13.0283C23.5966 13.0283 23.9039 13.0377 24.9292 13.0851C25.877 13.1281 26.3918 13.2865 26.7345 13.42C27.189 13.5964 27.5127 13.8065 27.8528 14.1465C28.1928 14.4875 28.4037 14.8111 28.5802 15.2648C28.7136 15.6075 28.8712 16.1223 28.9142 17.0701C28.9616 18.0954 28.971 18.4036 28.971 20.9992C28.971 23.5956 28.9616 23.9029 28.9142 24.9282C28.8712 25.8769 28.7136 26.3909 28.5802 26.7335C28.4037 27.188 28.1928 27.5117 27.8528 27.8518C27.5127 28.1918 27.189 28.4027 26.7345 28.5792C26.3918 28.7127 25.877 28.8711 24.9292 28.9141C23.9039 28.9606 23.5966 28.9701 21.0001 28.9701C18.4037 28.9701 18.0964 28.9606 17.0711 28.9141C16.1232 28.8711 15.6084 28.7127 15.2658 28.5792C14.8121 28.4027 14.4884 28.1918 14.1475 27.8518C13.8075 27.5117 13.5966 27.188 13.4201 26.7335C13.2875 26.3909 13.1291 25.8769 13.0852 24.9282C13.0387 23.9029 13.0292 23.5956 13.0292 20.9992C13.0292 18.4036 13.0387 18.0954 13.0852 17.0701C13.1291 16.1223 13.2875 15.6075 13.4201 15.2648C13.5966 14.8111 13.8075 14.4875 14.1475 14.1465C14.4884 13.8065 14.8121 13.5964 15.2658 13.42C15.6084 13.2865 16.1232 13.1281 17.0711 13.0851C18.0964 13.0377 18.4037 13.0283 21.0001 13.0283Z" fill="#634B1C"/>
<path fill-rule="evenodd" clip-rule="evenodd" d="M20.9995 24.2407C19.2097 24.2407 17.7582 22.7892 17.7582 20.9995C17.7582 19.2097 19.2097 17.7591 20.9995 17.7591C22.7892 17.7591 24.2407 19.2097 24.2407 20.9995C24.2407 22.7892 22.7892 24.2407 20.9995 24.2407ZM20.9995 16.0063C18.2421 16.0063 16.0063 18.2421 16.0063 20.9995C16.0063 23.7569 18.2421 25.9926 20.9995 25.9926C23.7569 25.9926 25.9926 23.7569 25.9926 20.9995C25.9926 18.2421 23.7569 16.0063 20.9995 16.0063Z" fill="#634B1C"/>
<path fill-rule="evenodd" clip-rule="evenodd" d="M27.3573 15.8091C27.3573 16.453 26.8347 16.9764 26.1908 16.9764C25.546 16.9764 25.0234 16.453 25.0234 15.8091C25.0234 15.1651 25.546 14.6426 26.1908 14.6426C26.8347 14.6426 27.3573 15.1651 27.3573 15.8091Z" fill="#634B1C"/>
</svg>
