<svg width="28" height="28" viewBox="0 0 28 28" fill="none" xmlns="http://www.w3.org/2000/svg">
<path d="M0 14C0 6.26801 6.26801 0 14 0C21.732 0 28 6.26801 28 14C28 21.732 21.732 28 14 28C6.26801 28 0 21.732 0 14Z" fill="url(#paint0_linear)"/>
<mask id="mask0" style="mask-type:alpha" maskUnits="userSpaceOnUse" x="0" y="0" width="28" height="28">
<path fill-rule="evenodd" clip-rule="evenodd" d="M0 14C0 6.26801 6.26801 0 14 0C21.732 0 28 6.26801 28 14C28 21.732 21.732 28 14 28C6.26801 28 0 21.732 0 14Z" fill="white"/>
</mask>
<g mask="url(#mask0)">
<path fill-rule="evenodd" clip-rule="evenodd" d="M14.0007 6.53333C11.9728 6.53333 11.7184 6.54219 10.9219 6.57844C10.127 6.61484 9.58442 6.74068 9.10966 6.92533C8.61857 7.11604 8.20199 7.37116 7.78696 7.78634C7.37162 8.20136 7.11651 8.61795 6.92517 9.10889C6.74006 9.5838 6.61406 10.1265 6.57828 10.9211C6.54266 11.7176 6.53333 11.9722 6.53333 14.0001C6.53333 16.0279 6.54235 16.2816 6.57844 17.0781C6.61499 17.873 6.74084 18.4156 6.92533 18.8903C7.1162 19.3814 7.37131 19.798 7.78649 20.213C8.20137 20.6284 8.61795 20.8841 9.10873 21.0748C9.5838 21.2595 10.1265 21.3853 10.9213 21.4217C11.7177 21.4579 11.9721 21.4668 13.9998 21.4668C16.0278 21.4668 16.2815 21.4579 17.0779 21.4217C17.8728 21.3853 18.416 21.2595 18.8911 21.0748C19.382 20.8841 19.798 20.6284 20.2129 20.213C20.6282 19.798 20.8833 19.3814 21.0747 18.8905C21.2582 18.4156 21.3842 17.8728 21.4215 17.0782C21.4573 16.2818 21.4667 16.0279 21.4667 14.0001C21.4667 11.9722 21.4573 11.7177 21.4215 10.9213C21.3842 10.1264 21.2582 9.5838 21.0747 9.10904C20.8833 8.61795 20.6282 8.20136 20.2129 7.78634C19.7975 7.371 19.3822 7.11589 18.8906 6.92533C18.4146 6.74068 17.8717 6.61484 17.0768 6.57844C16.2804 6.54219 16.0268 6.53333 13.9984 6.53333H14.0007ZM13.3309 7.8789C13.4609 7.87869 13.6008 7.87875 13.7518 7.87882L14.0007 7.8789C15.9943 7.8789 16.2306 7.88605 17.0179 7.92183C17.7459 7.95512 18.141 8.07676 18.4042 8.17897C18.7526 8.3143 19.0011 8.47608 19.2622 8.73742C19.5236 8.99875 19.6854 9.24764 19.821 9.59609C19.9232 9.85898 20.045 10.2541 20.0781 10.9821C20.1139 11.7692 20.1217 12.0057 20.1217 13.9984C20.1217 15.991 20.1139 16.2275 20.0781 17.0146C20.0449 17.7426 19.9232 18.1377 19.821 18.4006C19.6857 18.7491 19.5236 18.9972 19.2622 19.2584C19.0009 19.5197 18.7528 19.6815 18.4042 19.8168C18.1413 19.9195 17.7459 20.0408 17.0179 20.0741C16.2307 20.1099 15.9943 20.1177 14.0007 20.1177C12.0069 20.1177 11.7706 20.1099 10.9835 20.0741C10.2555 20.0405 9.86037 19.9189 9.59701 19.8167C9.24857 19.6813 8.99967 19.5195 8.73834 19.2582C8.477 18.9969 8.31522 18.7486 8.17958 18.4C8.07738 18.1371 7.95557 17.742 7.92244 17.014C7.88666 16.2269 7.87951 15.9904 7.87951 13.9965C7.87951 12.0026 7.88666 11.7674 7.92244 10.9802C7.95573 10.2522 8.07738 9.85712 8.17958 9.59391C8.31491 9.24547 8.477 8.99657 8.73834 8.73524C8.99967 8.4739 9.24857 8.31212 9.59701 8.17648C9.86022 8.07381 10.2555 7.95247 10.9835 7.91903C11.6723 7.88792 11.9392 7.87858 13.3309 7.87703V7.8789ZM17.0904 10.0144C17.0904 9.51955 17.4917 9.11868 17.9864 9.11868V9.11837C18.4811 9.11837 18.8824 9.51971 18.8824 10.0144C18.8824 10.509 18.4811 10.9104 17.9864 10.9104C17.4917 10.9104 17.0904 10.509 17.0904 10.0144ZM14.0006 10.1656C11.883 10.1657 10.1662 11.8825 10.1662 14.0001C10.1662 16.1177 11.8831 17.8338 14.0007 17.8338C16.1183 17.8338 17.8346 16.1177 17.8346 14.0001C17.8346 11.8825 16.1182 10.1656 14.0006 10.1656ZM16.4896 14.0001C16.4896 12.6254 15.3752 11.5112 14.0007 11.5112C12.626 11.5112 11.5118 12.6254 11.5118 14.0001C11.5118 15.3746 12.626 16.489 14.0007 16.489C15.3752 16.489 16.4896 15.3746 16.4896 14.0001Z" fill="white"/>
</g>
<defs>
<linearGradient id="paint0_linear" x1="28" y1="8.34465e-07" x2="-8.34465e-07" y2="28" gradientUnits="userSpaceOnUse">
<stop stop-color="#7835AD"/>
<stop offset="0.562218" stop-color="#FD0400"/>
<stop offset="1" stop-color="#F9DC00"/>
</linearGradient>
</defs>
</svg>
