<svg width="13" height="14" viewBox="0 0 13 14" fill="none" xmlns="http://www.w3.org/2000/svg">
<path d="M10.8333 9.8957C10.2844 9.8957 9.79333 10.1065 9.41778 10.4369L4.26833 7.5202C4.30444 7.35856 4.33333 7.19691 4.33333 7.02823C4.33333 6.85956 4.30444 6.69791 4.26833 6.53627L9.36 3.64771C9.75 3.99912 10.2628 4.21699 10.8333 4.21699C12.0322 4.21699 13 3.27522 13 2.10856C13 0.941889 12.0322 0.00012207 10.8333 0.00012207C9.63444 0.00012207 8.66667 0.941889 8.66667 2.10856C8.66667 2.27723 8.69556 2.43888 8.73167 2.60052L3.64 5.48908C3.25 5.13767 2.73722 4.9198 2.16667 4.9198C0.967778 4.9198 0 5.86157 0 7.02823C0 8.1949 0.967778 9.13667 2.16667 9.13667C2.73722 9.13667 3.25 8.9188 3.64 8.56739L8.78222 11.4911C8.74611 11.6387 8.72444 11.7933 8.72444 11.9479C8.72444 13.0794 9.67056 14.0001 10.8333 14.0001C11.9961 14.0001 12.9422 13.0794 12.9422 11.9479C12.9422 10.8164 11.9961 9.8957 10.8333 9.8957Z" fill="white"/>
</svg>
