<svg width="28" height="28" viewBox="0 0 28 28" fill="none" xmlns="http://www.w3.org/2000/svg">
<path d="M0 14.0001C0 6.26814 6.26801 0.00012207 14 0.00012207C21.732 0.00012207 28 6.26814 28 14.0001C28 21.7321 21.732 28.0001 14 28.0001C6.26801 28.0001 0 21.7321 0 14.0001Z" fill="#FF0000"/>
<path d="M21.1546 10.5429C20.9829 9.88311 20.4768 9.36358 19.8343 9.18726C18.6698 8.86682 14 8.86682 14 8.86682C14 8.86682 9.33019 8.86682 8.16564 9.18726C7.52308 9.36358 7.01705 9.88311 6.84531 10.5429C6.53333 11.7386 6.53333 14.2335 6.53333 14.2335C6.53333 14.2335 6.53333 16.7283 6.84531 17.9241C7.01705 18.5839 7.52308 19.1034 8.16564 19.2798C9.33019 19.6001 14 19.6002 14 19.6002C14 19.6002 18.6698 19.6001 19.8343 19.2798C20.4768 19.1034 20.9829 18.5839 21.1546 17.9241C21.4667 16.7283 21.4667 14.2335 21.4667 14.2335C21.4667 14.2335 21.4667 11.7386 21.1546 10.5429Z" fill="white"/>
<path d="M12.6 16.8001V12.1334L16.3334 14.4668L12.6 16.8001Z" fill="#FF0000"/>
</svg>
