<svg width="329" height="30" viewBox="0 0 329 30" fill="none" xmlns="http://www.w3.org/2000/svg">
<g opacity="0.8">
<path d="M96.3964 20.416C96.3964 21.0723 96.4902 21.4473 96.6777 21.541C96.7871 21.5879 96.9355 21.6113 97.123 21.6113V17.1816H96.5605C95.7636 19.7598 94.1699 21.0566 91.7793 21.0723C89.748 21.0723 88.3652 20.0488 87.6308 18.002C87.2714 17.002 87.0918 15.8223 87.0918 14.4629C87.0918 11.541 87.8964 9.55664 89.5058 8.50977C90.2089 8.07227 90.9902 7.85352 91.8496 7.85352C93.8027 7.85352 95.2168 8.77539 96.0918 10.6191C96.248 10.9473 96.3808 11.2832 96.4902 11.627H97.0527L96.9824 7.31445C96.6386 7.31445 96.4277 7.42383 96.3496 7.64258C96.3027 7.83008 96.2793 8.13477 96.2793 8.55664C95.8261 8.10352 95.0527 7.73633 93.9589 7.45508C93.2402 7.2832 92.5058 7.19727 91.7558 7.19727C89.2871 7.19727 87.3964 8.11133 86.0839 9.93945C85.1777 11.2363 84.7246 12.7285 84.7246 14.416C84.7246 16.4629 85.3574 18.1816 86.623 19.5723C87.9668 21.0098 89.7168 21.7285 91.873 21.7285C93.4511 21.7129 94.9589 21.2754 96.3964 20.416ZM100.867 16.502C100.867 14.0801 101.531 12.6035 102.86 12.0723C103.203 11.9473 103.563 11.8848 103.938 11.8848C105.672 11.8848 106.68 12.9785 106.961 15.166C107.008 15.541 107.031 15.9551 107.031 16.4082C107.031 19.0332 106.313 20.5723 104.875 21.0254C104.594 21.1035 104.305 21.1426 104.008 21.1426C102.43 21.1426 101.438 20.2051 101.031 18.3301C100.922 17.7832 100.867 17.1738 100.867 16.502ZM104.008 11.2988C102.508 11.2988 101.258 11.8145 100.258 12.8457C99.3361 13.7988 98.8752 14.9863 98.8752 16.4082C98.8752 18.377 99.5939 19.8535 101.031 20.8379C101.906 21.4316 102.875 21.7285 103.938 21.7285C105.438 21.7285 106.68 21.1973 107.664 20.1348C108.571 19.166 109.024 17.9551 109.024 16.502C109.024 14.5332 108.297 13.0723 106.844 12.1191C105.985 11.5723 105.039 11.2988 104.008 11.2988ZM114.995 20.9082H113.94V15.8457C113.987 14.3926 114.502 13.3457 115.487 12.7051C115.909 12.4395 116.338 12.3066 116.776 12.3066C117.729 12.3066 118.377 12.752 118.721 13.6426C118.862 14.002 118.932 14.4082 118.932 14.8613V19.502C118.932 20.2207 118.729 20.6504 118.323 20.791C118.088 20.8691 117.706 20.9082 117.174 20.9082V21.4941H122.448C122.448 21.1504 122.331 20.9629 122.096 20.9316C122.034 20.916 121.956 20.9082 121.862 20.9082H120.69V15.0957C120.69 13.5332 120.151 12.416 119.073 11.7441C118.573 11.4473 118.034 11.2988 117.456 11.2988C116.299 11.2988 115.346 11.7598 114.596 12.6816C114.315 13.041 114.088 13.4395 113.916 13.877L113.823 11.5332H110.424V12.1191H112.182V19.502C112.182 20.2207 111.979 20.6504 111.573 20.791C111.338 20.8691 110.956 20.9082 110.424 20.9082V21.4941H115.581C115.581 21.1504 115.463 20.9629 115.229 20.9316C115.166 20.916 115.088 20.9082 114.995 20.9082ZM125.84 15.002C125.872 12.9395 126.653 11.9004 128.184 11.8848C129.715 11.916 130.489 12.9551 130.505 15.002C130.473 17.127 129.7 18.1973 128.184 18.2129C126.637 18.1816 125.856 17.1113 125.84 15.002ZM128.208 11.2988C126.801 11.2988 125.684 11.752 124.856 12.6582C124.262 13.3301 123.965 14.1191 123.965 15.0254C123.965 16.2129 124.544 17.1973 125.7 17.9785C125.809 18.0566 125.919 18.127 126.028 18.1895C125.028 18.1895 124.403 18.6191 124.153 19.4785C124.106 19.6816 124.083 19.8848 124.083 20.0879C124.098 20.916 124.434 21.5332 125.09 21.9395C124.575 22.4863 124.317 23.041 124.317 23.6035C124.317 24.4629 124.825 25.1035 125.84 25.5254C126.481 25.8066 127.27 25.9473 128.208 25.9473C130.583 25.9473 132.153 25.3691 132.919 24.2129C133.169 23.8223 133.294 23.4082 133.294 22.9707C133.294 21.627 132.52 20.8535 130.973 20.6504C130.77 20.6191 130.559 20.6035 130.34 20.6035L126.075 20.5098C125.356 20.4629 124.989 20.1504 124.973 19.5723C124.973 19.166 125.231 18.9082 125.747 18.7988C125.856 18.7832 125.973 18.7754 126.098 18.7754L128.161 18.7988C129.551 18.7988 130.661 18.3301 131.489 17.3926C132.083 16.7207 132.38 15.9238 132.38 15.002C132.364 13.8301 131.911 12.8926 131.02 12.1895C131.161 11.6895 131.426 11.3926 131.817 11.2988C131.88 11.2832 131.942 11.2754 132.005 11.2754C132.223 11.2754 132.458 11.3926 132.708 11.627C132.88 11.7832 133.036 11.8613 133.176 11.8613C133.567 11.7676 133.794 11.5176 133.856 11.1113C133.856 10.627 133.63 10.2988 133.176 10.127C133.005 10.0645 132.833 10.0332 132.661 10.0332C131.926 10.0332 131.333 10.3613 130.88 11.0176C130.708 11.2676 130.575 11.541 130.481 11.8379C129.778 11.4785 129.02 11.2988 128.208 11.2988ZM128.208 25.3379C126.661 25.3379 125.684 24.9316 125.278 24.1191C125.169 23.9004 125.114 23.6816 125.114 23.4629C125.13 23.041 125.317 22.6191 125.676 22.1973C125.989 22.2598 126.247 22.291 126.45 22.291L130.059 22.3379C131.231 22.3535 131.911 22.6191 132.098 23.1348C132.145 23.2598 132.169 23.416 132.169 23.6035C132.169 24.291 131.528 24.791 130.247 25.1035C129.622 25.2598 128.942 25.3379 128.208 25.3379ZM139.78 20.9082H138.093V16.2441C138.093 14.8223 138.53 13.6816 139.405 12.8223C139.749 12.4941 140.038 12.3223 140.272 12.3066C140.538 12.3066 140.78 12.502 140.999 12.8926C141.249 13.3301 141.483 13.5801 141.702 13.6426C141.796 13.6738 141.89 13.6895 141.983 13.6895C142.452 13.6895 142.749 13.4629 142.874 13.0098C142.905 12.916 142.921 12.8223 142.921 12.7285C142.921 12.0254 142.561 11.5957 141.843 11.4395C141.686 11.4082 141.538 11.3926 141.397 11.3926C140.46 11.3926 139.624 11.791 138.89 12.5879C138.546 12.9629 138.272 13.3848 138.069 13.8535L137.976 11.5332H134.577V12.1191H136.335V19.502C136.335 20.2207 136.132 20.6504 135.726 20.791C135.491 20.8691 135.108 20.9082 134.577 20.9082V21.4941H140.366C140.366 21.1504 140.249 20.9629 140.015 20.9316C139.952 20.916 139.874 20.9082 139.78 20.9082ZM151.962 21.7285C153.165 21.7285 153.829 21.002 153.954 19.5488C153.97 19.4551 153.978 19.3691 153.978 19.291L153.368 19.2676C153.259 20.4082 152.954 20.9863 152.454 21.002C152.048 20.9707 151.837 20.5645 151.821 19.7832V14.8379C151.821 12.6035 150.704 11.4238 148.47 11.2988C148.329 11.2988 148.189 11.2988 148.048 11.2988C146.298 11.2988 145.126 11.7051 144.532 12.5176C144.345 12.7832 144.251 13.0488 144.251 13.3145C144.251 13.7988 144.478 14.0801 144.931 14.1582C145.009 14.1738 145.087 14.1816 145.165 14.1816C145.525 14.1816 145.79 13.9551 145.962 13.502C146.181 12.9238 146.329 12.5801 146.407 12.4707C146.704 12.0801 147.165 11.8848 147.79 11.8848C149.259 11.9785 150.017 12.7832 150.064 14.2988V15.7754C146.392 15.7754 144.29 16.541 143.759 18.0723C143.665 18.3691 143.618 18.6895 143.618 19.0332C143.618 20.2207 144.142 21.0332 145.189 21.4707C145.611 21.6426 146.056 21.7285 146.525 21.7285C147.665 21.7285 148.626 21.3379 149.407 20.5566C149.689 20.2598 149.9 19.9473 150.04 19.6191C150.228 21.0098 150.868 21.7129 151.962 21.7285ZM147.298 20.791C146.345 20.791 145.759 20.3145 145.54 19.3613C145.493 19.1426 145.47 18.9004 145.47 18.6348C145.47 17.5879 146.071 16.9238 147.275 16.6426C147.915 16.502 148.845 16.4238 150.064 16.4082V18.2832C149.829 19.3613 149.259 20.1191 148.353 20.5566C147.993 20.7129 147.642 20.791 147.298 20.791ZM154.324 12.1191H155.964V18.7285C156.074 20.6816 156.972 21.6895 158.66 21.752C160.097 21.752 160.995 20.8691 161.355 19.1035C161.355 19.0879 161.355 19.0723 161.355 19.0566L160.722 18.9395C160.331 20.2363 159.761 20.9395 159.011 21.0488C158.167 21.0176 157.738 20.416 157.722 19.2441V12.1191H161.355V11.5332H157.722V8.81445L155.964 9.30664V11.5332H154.324V12.1191ZM173.302 20.9082H172.131V11.5332H168.451V12.1191H170.373V17.1816C170.373 18.5879 169.881 19.6191 168.896 20.2754C168.459 20.5723 168.006 20.7207 167.537 20.7207C166.256 20.7207 165.513 20.0645 165.31 18.752C165.279 18.5332 165.263 18.2988 165.263 18.0488V11.5332H161.701V12.1191H163.506V17.6973C163.521 20.3691 164.638 21.7129 166.857 21.7285C168.029 21.7285 168.99 21.252 169.74 20.2988C170.021 19.9395 170.248 19.541 170.42 19.1035L170.584 21.4941H173.888C173.888 21.1504 173.771 20.9629 173.537 20.9316C173.474 20.916 173.396 20.9082 173.302 20.9082ZM179.836 20.9082H178.57V6.25977H175.055V6.8457H176.812V19.502C176.812 20.2207 176.609 20.6504 176.203 20.791C175.969 20.8691 175.586 20.9082 175.055 20.9082V21.4941H180.422C180.422 21.1504 180.305 20.9629 180.07 20.9316C180.008 20.916 179.93 20.9082 179.836 20.9082ZM189.979 21.7285C191.182 21.7285 191.846 21.002 191.971 19.5488C191.986 19.4551 191.994 19.3691 191.994 19.291L191.385 19.2676C191.275 20.4082 190.971 20.9863 190.471 21.002C190.065 20.9707 189.854 20.5645 189.838 19.7832V14.8379C189.838 12.6035 188.721 11.4238 186.486 11.2988C186.346 11.2988 186.205 11.2988 186.065 11.2988C184.315 11.2988 183.143 11.7051 182.549 12.5176C182.361 12.7832 182.268 13.0488 182.268 13.3145C182.268 13.7988 182.494 14.0801 182.947 14.1582C183.025 14.1738 183.104 14.1816 183.182 14.1816C183.541 14.1816 183.807 13.9551 183.979 13.502C184.197 12.9238 184.346 12.5801 184.424 12.4707C184.721 12.0801 185.182 11.8848 185.807 11.8848C187.275 11.9785 188.033 12.7832 188.08 14.2988V15.7754C184.408 15.7754 182.307 16.541 181.775 18.0723C181.682 18.3691 181.635 18.6895 181.635 19.0332C181.635 20.2207 182.158 21.0332 183.205 21.4707C183.627 21.6426 184.072 21.7285 184.541 21.7285C185.682 21.7285 186.643 21.3379 187.424 20.5566C187.705 20.2598 187.916 19.9473 188.057 19.6191C188.244 21.0098 188.885 21.7129 189.979 21.7285ZM185.315 20.791C184.361 20.791 183.775 20.3145 183.557 19.3613C183.51 19.1426 183.486 18.9004 183.486 18.6348C183.486 17.5879 184.088 16.9238 185.291 16.6426C185.932 16.502 186.861 16.4238 188.08 16.4082V18.2832C187.846 19.3613 187.275 20.1191 186.369 20.5566C186.01 20.7129 185.658 20.791 185.315 20.791ZM192.34 12.1191H193.981V18.7285C194.09 20.6816 194.989 21.6895 196.676 21.752C198.114 21.752 199.012 20.8691 199.371 19.1035C199.371 19.0879 199.371 19.0723 199.371 19.0566L198.739 18.9395C198.348 20.2363 197.778 20.9395 197.028 21.0488C196.184 21.0176 195.754 20.416 195.739 19.2441V12.1191H199.371V11.5332H195.739V8.81445L193.981 9.30664V11.5332H192.34V12.1191ZM204.756 20.9082H203.585V11.5332H199.952V12.1191H201.827V19.502C201.827 20.2207 201.585 20.6582 201.1 20.8145C200.866 20.877 200.483 20.9082 199.952 20.9082V21.4941H205.342C205.342 21.1504 205.225 20.9629 204.991 20.9316C204.913 20.916 204.835 20.9082 204.756 20.9082ZM203.866 8.11133C203.866 7.56445 203.624 7.17383 203.139 6.93945C202.952 6.86133 202.772 6.82227 202.6 6.82227C202.053 6.82227 201.663 7.07227 201.428 7.57227C201.35 7.74414 201.311 7.92383 201.311 8.11133C201.311 8.68945 201.569 9.08789 202.085 9.30664C202.256 9.36914 202.428 9.40039 202.6 9.40039C203.147 9.40039 203.53 9.15039 203.749 8.65039C203.827 8.47852 203.866 8.29883 203.866 8.11133ZM208.735 16.502C208.735 14.0801 209.399 12.6035 210.727 12.0723C211.071 11.9473 211.431 11.8848 211.806 11.8848C213.54 11.8848 214.548 12.9785 214.829 15.166C214.876 15.541 214.899 15.9551 214.899 16.4082C214.899 19.0332 214.181 20.5723 212.743 21.0254C212.462 21.1035 212.173 21.1426 211.876 21.1426C210.298 21.1426 209.306 20.2051 208.899 18.3301C208.79 17.7832 208.735 17.1738 208.735 16.502ZM211.876 11.2988C210.376 11.2988 209.126 11.8145 208.126 12.8457C207.204 13.7988 206.743 14.9863 206.743 16.4082C206.743 18.377 207.462 19.8535 208.899 20.8379C209.774 21.4316 210.743 21.7285 211.806 21.7285C213.306 21.7285 214.548 21.1973 215.532 20.1348C216.438 19.166 216.891 17.9551 216.891 16.502C216.891 14.5332 216.165 13.0723 214.712 12.1191C213.852 11.5723 212.907 11.2988 211.876 11.2988ZM222.862 20.9082H221.808V15.8457C221.855 14.3926 222.37 13.3457 223.355 12.7051C223.776 12.4395 224.206 12.3066 224.644 12.3066C225.597 12.3066 226.245 12.752 226.589 13.6426C226.73 14.002 226.8 14.4082 226.8 14.8613V19.502C226.8 20.2207 226.597 20.6504 226.191 20.791C225.956 20.8691 225.573 20.9082 225.042 20.9082V21.4941H230.316C230.316 21.1504 230.198 20.9629 229.964 20.9316C229.901 20.916 229.823 20.9082 229.73 20.9082H228.558V15.0957C228.558 13.5332 228.019 12.416 226.941 11.7441C226.441 11.4473 225.901 11.2988 225.323 11.2988C224.167 11.2988 223.214 11.7598 222.464 12.6816C222.183 13.041 221.956 13.4395 221.784 13.877L221.691 11.5332H218.292V12.1191H220.05V19.502C220.05 20.2207 219.847 20.6504 219.441 20.791C219.206 20.8691 218.823 20.9082 218.292 20.9082V21.4941H223.448C223.448 21.1504 223.331 20.9629 223.097 20.9316C223.034 20.916 222.956 20.9082 222.862 20.9082ZM235.115 21.0957C236.193 21.0957 236.919 20.7676 237.294 20.1113C237.435 19.877 237.505 19.6191 237.505 19.3379C237.505 18.6816 237.029 18.1191 236.076 17.6504C235.872 17.541 235.536 17.3848 235.068 17.1816C233.786 16.6504 232.935 16.1504 232.513 15.6816C232.06 15.166 231.833 14.5645 231.833 13.877C231.833 12.7988 232.427 12.041 233.615 11.6035C234.161 11.4004 234.755 11.2988 235.396 11.2988C236.427 11.2988 237.318 11.5176 238.068 11.9551C238.068 11.502 238.177 11.2441 238.396 11.1816C238.49 11.166 238.591 11.1582 238.701 11.1582V14.0879H238.091C238.06 12.6504 237.263 11.9238 235.701 11.9082C234.529 11.9082 233.802 12.252 233.521 12.9395C233.443 13.127 233.404 13.3223 233.404 13.5254C233.404 14.1973 233.888 14.7676 234.857 15.2363C235.076 15.3457 235.419 15.4941 235.888 15.6816C237.154 16.1973 237.997 16.6895 238.419 17.1582C238.872 17.6582 239.099 18.252 239.099 18.9395C239.099 20.2051 238.427 21.0488 237.083 21.4707C236.568 21.6426 236.005 21.7285 235.396 21.7285C234.271 21.7129 233.294 21.4316 232.466 20.8848C232.466 21.291 232.365 21.5254 232.161 21.5879C232.068 21.6035 231.958 21.6113 231.833 21.6113V18.0488H232.49C232.521 20.0645 233.396 21.0801 235.115 21.0957ZM243.406 17.5801C243.406 15.5801 243.617 13.3613 244.039 10.9238C244.21 9.93945 244.296 9.19727 244.296 8.69727C244.296 7.77539 243.96 7.2832 243.289 7.2207C243.226 7.20508 243.156 7.19727 243.078 7.19727C242.265 7.22852 241.851 7.74414 241.835 8.74414C241.835 9.16602 241.968 10.1973 242.234 11.8379C242.546 13.6973 242.703 15.6113 242.703 17.5801H243.406ZM244.226 20.416C244.226 19.9004 243.992 19.5332 243.523 19.3145C243.367 19.2363 243.203 19.1973 243.031 19.1973C242.515 19.1973 242.156 19.4316 241.953 19.9004C241.875 20.0723 241.835 20.2441 241.835 20.416C241.835 20.916 242.062 21.2754 242.515 21.4941C242.687 21.5723 242.859 21.6113 243.031 21.6113C243.531 21.6113 243.89 21.3848 244.109 20.9316C244.187 20.7598 244.226 20.5879 244.226 20.416Z" fill="#F9D590"/>
<path d="M307.51 6.187L307.485 6.43571L307.51 6.187L307.51 6.18701L307.51 6.18703L307.511 6.18706L307.512 6.18715L307.514 6.18739L307.521 6.18821L307.546 6.19135C307.567 6.19417 307.597 6.19856 307.636 6.20508C307.714 6.21813 307.827 6.23971 307.973 6.27439L307.984 6.27687L307.994 6.28025C308.28 6.37459 308.724 6.53986 309.198 6.91977L309.198 6.92021C309.663 7.29543 310.152 7.87082 310.483 8.66516L310.485 8.66894L310.485 8.66895C310.795 9.44965 310.991 10.4976 310.625 11.5922L310.625 11.5938C310.259 12.6635 309.399 13.6652 308.2 14.2486L308.2 14.2487C307.015 14.8242 305.463 14.9901 304.018 14.4125C302.568 13.8575 301.378 12.5936 300.711 11.0623L300.709 11.0588L300.709 11.0588C300.382 10.2759 300.212 9.4081 300.212 8.51843V8.5146L300.212 8.5146C300.226 7.61436 300.459 6.71852 300.835 5.88676C301.59 4.20459 303.019 2.81144 304.768 1.967C306.526 1.08632 308.769 0.984301 310.689 1.80493C312.615 2.59703 314.205 4.14687 315.183 6.02825M307.51 6.187L314.962 6.14425M307.51 6.187L307.344 6.17L307.265 6.3175C307.226 6.38848 307.223 6.47526 307.261 6.5508C307.29 6.609 307.333 6.63988 307.349 6.65079C307.383 6.67349 307.417 6.68493 307.428 6.68855L307.428 6.68878C307.453 6.69692 307.486 6.7055 307.514 6.71281L307.526 6.71597C307.596 6.73423 307.694 6.76074 307.817 6.80666C308.061 6.89804 308.412 7.06922 308.808 7.40807M307.51 6.187L308.808 7.40807M315.183 6.02825C315.183 6.02848 315.183 6.02871 315.183 6.02893L314.962 6.14425M315.183 6.02825C315.183 6.02821 315.183 6.02818 315.183 6.02814L314.962 6.14425M315.183 6.02825C316.166 7.90241 316.519 10.2214 315.946 12.3603M314.962 6.14425C315.919 7.96992 316.26 10.2267 315.703 12.3003M315.946 12.3603C315.946 12.3587 315.947 12.3571 315.947 12.3555L315.703 12.3003M315.946 12.3603C315.701 13.4391 315.22 14.4497 314.633 15.366C314.048 16.2983 313.305 17.1203 312.485 17.8352C311.671 18.5628 310.761 19.1778 309.8 19.6819C308.842 20.2012 307.823 20.6035 306.774 20.8915L306.773 20.8918C302.507 22.0389 298.097 21.2167 294.232 19.8893C291.855 19.0944 289.363 17.9438 286.812 16.7669C285.426 16.1273 284.024 15.4798 282.613 14.8774C280.599 14.0312 278.545 13.2941 276.495 12.7995C275.977 12.6948 275.463 12.59 274.953 12.4864C274.637 12.4325 274.33 12.3999 274.016 12.3665C273.824 12.3461 273.629 12.3254 273.428 12.2993L273.427 12.2991C272.435 12.1658 271.462 12.1889 270.507 12.2651L270.506 12.2652C266.686 12.5682 263.592 14.2509 261.959 15.898L261.957 15.8999L261.957 15.8999C261.116 16.7297 260.586 17.497 260.245 18.0376C260.169 18.1574 260.099 18.2726 260.036 18.3755C259.963 18.4952 259.901 18.5982 259.852 18.6723C259.807 18.7397 259.752 18.8163 259.692 18.8679C259.662 18.8931 259.603 18.9376 259.518 18.9479C259.413 18.9608 259.326 18.9152 259.271 18.8551L259.264 18.8481L259.258 18.8406C259.226 18.8001 259.213 18.7593 259.207 18.7374C259.201 18.7126 259.197 18.6895 259.196 18.6711C259.193 18.6345 259.194 18.596 259.197 18.5596C259.203 18.4854 259.219 18.3933 259.244 18.2875C259.294 18.0747 259.386 17.7883 259.536 17.4483C259.836 16.7674 260.369 15.8634 261.265 14.8946C263.034 12.9772 266.362 11.1194 270.432 10.759C271.434 10.6692 272.499 10.6334 273.564 10.7647C273.73 10.7831 273.9 10.8 274.072 10.8171C274.426 10.8523 274.791 10.8885 275.149 10.9407L275.161 10.9425L275.161 10.9428C275.684 11.046 276.211 11.1492 276.741 11.2524L276.75 11.254L276.75 11.2542C278.873 11.744 280.976 12.4767 283.008 13.3171L283.01 13.3179C284.526 13.9608 286.015 14.6457 287.468 15.314C287.95 15.5355 288.427 15.7551 288.901 15.9708C290.805 16.839 292.644 17.6444 294.414 18.2587L294.414 18.2588C296.282 18.9102 298.212 19.4064 300.176 19.6823L301.665 19.8062L301.674 19.8069L301.674 19.8071C301.905 19.8342 302.14 19.8337 302.387 19.8261C302.453 19.824 302.522 19.8214 302.591 19.8187C302.773 19.8118 302.961 19.8045 303.147 19.8064L303.15 19.8064C304.125 19.8299 305.072 19.6541 306.036 19.4337C307.928 18.9583 309.728 18.078 311.224 16.8545C312.711 15.63 313.892 14.0412 314.402 12.2579L314.405 12.2493L314.405 12.2494C315.56 8.69371 313.506 4.62379 310.361 3.15562L310.361 3.15551C309.579 2.78958 308.735 2.57153 307.911 2.56479C307.078 2.558 306.25 2.73828 305.487 3.05657L305.486 3.05706C303.951 3.68849 302.69 4.86481 301.983 6.24401L301.981 6.24934L301.981 6.24931C301.243 7.60872 301.178 9.19967 301.676 10.521L301.678 10.5251L301.678 10.5251C302.155 11.8613 303.158 12.9294 304.299 13.4626C305.449 13.9812 306.731 13.9083 307.753 13.4702L307.755 13.4691C308.785 13.041 309.525 12.2287 309.861 11.3769C310.188 10.522 310.082 9.64028 309.837 8.95048C309.587 8.25819 309.186 7.74726 308.808 7.40807M315.946 12.3603C315.946 12.3619 315.945 12.3635 315.945 12.3651L315.703 12.3003M315.703 12.3003L308.808 7.40807M305.391 2.82586C306.181 2.49594 307.043 2.30771 307.913 2.31479C308.779 2.32188 309.659 2.55059 310.467 2.92908C313.717 4.44609 315.84 8.64088 314.643 12.3266C314.116 14.1695 312.899 15.7988 311.383 17.0477L305.391 2.82586ZM305.391 2.82586C303.802 3.47962 302.495 4.69707 301.761 6.13008L305.391 2.82586ZM307.587 6.21459C307.584 6.21371 307.585 6.21382 307.589 6.21506L307.587 6.21459ZM302.607 20.0683C302.786 20.0615 302.965 20.0546 303.144 20.0564L287.361 15.5399C289.778 16.6514 292.106 17.7224 294.332 18.4948C296.215 19.1516 298.163 19.6526 300.149 19.9309L301.644 20.0554C301.965 20.093 302.286 20.0807 302.607 20.0683Z" fill="#E1B96B" stroke="#42220B" stroke-width="0.5"/>
<path d="M324.997 15.6614C324.997 15.6618 324.996 15.6621 324.996 15.6624L324.82 15.5815C324.75 15.7896 324.523 16.0847 324.114 16.212C324.11 16.2135 324.105 16.215 324.1 16.2165L324.134 16.3373C324.133 16.3378 324.131 16.3382 324.129 16.3387L324.997 15.6614ZM324.997 15.6614C324.999 15.6564 325.001 15.6514 325.003 15.6464L324.822 15.5754C324.821 15.5773 324.82 15.5791 324.82 15.5809M325.107 15.1989L325.074 15.0237L324.898 14.9973C324.828 14.9868 324.759 15.0059 324.705 15.0475C324.66 15.0821 324.638 15.1227 324.629 15.1415C324.613 15.1761 324.607 15.2093 324.605 15.2182L324.605 15.2191C324.603 15.2307 324.601 15.2436 324.6 15.2521L324.599 15.2546C324.598 15.2649 324.596 15.2745 324.594 15.2851C324.588 15.3246 324.575 15.3817 324.542 15.4541L324.541 15.4564C324.486 15.5792 324.32 15.7796 324.009 15.8534L324.009 15.8532L323.999 15.8559C323.688 15.9433 323.237 15.9183 322.981 15.619C322.974 15.607 322.968 15.5961 322.963 15.5867L322.949 15.5627L322.937 15.5437C322.923 15.5196 322.922 15.5136 322.922 15.5141L322.918 15.4971L322.913 15.4845C322.912 15.4829 322.911 15.478 322.909 15.4682C322.908 15.4657 322.907 15.4627 322.907 15.4592C322.903 15.4435 322.897 15.4186 322.891 15.3953C322.877 15.3432 322.845 15.2485 322.763 15.1718C322.673 15.0696 322.613 14.9753 322.551 14.8507C322.438 14.6102 322.385 14.3157 322.411 14.0043L322.411 14.0038C322.462 13.376 322.823 12.6739 323.458 12.2946L323.458 12.2944C324.06 11.9334 324.972 12.0348 325.691 12.536L325.693 12.5378C326.418 13.0298 326.924 13.9208 326.912 14.8882L326.912 14.8897C326.906 15.8731 326.442 16.8973 325.676 17.7016C324.863 18.4698 323.819 19.085 322.62 19.401L322.62 19.4009L322.615 19.4026C321.41 19.752 320.093 19.9362 318.748 20.0124C316.053 20.1584 313.218 19.7726 310.394 19.0662L310.394 19.0661C307.563 18.3622 304.757 17.322 301.922 16.2633L301.727 16.1904C298.962 15.1577 296.17 14.1148 293.324 13.3706C290.595 12.531 287.354 12.1331 284.138 12.0032L284.138 12.0029L284.126 12.003L281.714 12.0212C281.181 12.0253 280.64 12.0827 280.118 12.1382C279.848 12.1669 279.582 12.1951 279.326 12.2151C278.192 12.281 277.09 12.4996 276.046 12.7067C275.628 12.7898 275.218 12.871 274.82 12.9397L274.82 12.9394L274.807 12.9424C274.327 13.0524 273.857 13.1903 273.407 13.3221C273.193 13.3849 272.984 13.4464 272.78 13.5028L272.78 13.5026L272.771 13.5054C272.556 13.5735 272.344 13.6322 272.13 13.6913C272.031 13.7188 271.931 13.7464 271.83 13.7751C271.52 13.8637 271.208 13.9609 270.912 14.0913C270.602 14.2171 270.297 14.3371 270 14.4537C269.229 14.757 268.517 15.0371 267.919 15.3355L267.919 15.3355L267.913 15.3384C267.102 15.7681 266.452 16.1311 266.005 16.4091C265.782 16.5475 265.603 16.669 265.478 16.7701C265.416 16.82 265.359 16.8716 265.316 16.9233C265.294 16.9493 265.27 16.9817 265.252 17.0198C265.234 17.0563 265.213 17.1148 265.219 17.1862L265.219 17.1862L265.219 17.1897C265.227 17.2744 265.272 17.3461 265.335 17.3924C265.39 17.4322 265.447 17.4456 265.484 17.451C265.557 17.4617 265.636 17.4528 265.704 17.4412C265.847 17.4166 266.043 17.3601 266.276 17.2811C266.748 17.1215 267.422 16.8535 268.249 16.5029L268.249 16.5029L268.251 16.5021C268.652 16.3284 269.112 16.1703 269.62 16.0016C269.713 15.9709 269.807 15.9399 269.902 15.9085C270.329 15.7678 270.784 15.6177 271.255 15.4459L271.255 15.446L271.261 15.4435C271.637 15.2944 272.035 15.1954 272.465 15.0888C272.663 15.0397 272.867 14.9889 273.079 14.9309C273.334 14.8677 273.587 14.8006 273.84 14.7332C274.248 14.6249 274.659 14.5157 275.09 14.4206C277.9 13.8728 281.097 13.4944 284.267 13.5898L284.267 13.5899L284.273 13.5899C284.778 13.5925 285.27 13.6381 285.771 13.6846C286.052 13.7106 286.337 13.737 286.628 13.7562C286.717 13.7636 286.806 13.7709 286.895 13.7783C287.194 13.803 287.492 13.8276 287.788 13.8516C288.024 13.8859 288.254 13.9267 288.486 13.9681C288.627 13.9932 288.769 14.0185 288.915 14.0427C289.309 14.1126 289.698 14.1819 290.083 14.2503C290.43 14.312 290.773 14.373 291.112 14.4332C291.714 14.5962 292.302 14.7562 292.872 14.9114L293.157 14.9888L293.157 14.9889C295.689 15.6746 298.212 16.604 300.765 17.5448C301.043 17.6474 301.322 17.7502 301.602 17.8529C304.436 18.8941 307.311 19.9169 310.255 20.5898C313.182 21.2667 316.167 21.6069 319.021 21.3725L319.024 21.3721C320.434 21.2361 321.829 21.0298 323.146 20.5772C323.748 20.3996 324.305 20.1123 324.829 19.8422C324.898 19.807 324.965 19.7721 325.032 19.7378L325.051 19.7284L325.067 19.7161C325.163 19.6458 325.26 19.5756 325.359 19.5045C325.802 19.1855 326.269 18.8494 326.639 18.4098C327.534 17.3803 328.057 16.0666 328.006 14.7603L328.006 14.7603L328.006 14.7544C327.924 13.4393 327.182 12.2562 326.16 11.6643C325.18 11.0531 323.861 10.9217 322.93 11.5784C322.048 12.1867 321.639 13.1483 321.616 14.0041L321.616 14.0051C321.606 14.4416 321.705 14.8665 321.901 15.2225C321.986 15.3833 322.121 15.5524 322.216 15.6505C322.216 15.6513 322.216 15.6522 322.216 15.653C322.223 15.6762 322.236 15.7233 322.255 15.7728L322.26 15.7858L322.267 15.7981C322.309 15.8794 322.362 15.972 322.428 16.0556L322.436 16.0656L322.444 16.0748C323.023 16.675 323.768 16.5893 324.191 16.45C324.677 16.2977 324.964 15.942 325.057 15.6592C325.111 15.5176 325.113 15.4005 325.114 15.3408L325.114 15.3374C325.114 15.3366 325.114 15.3357 325.114 15.3349C325.115 15.2989 325.114 15.2696 325.113 15.2471C325.112 15.2356 325.111 15.2258 325.11 15.2178L325.108 15.2071L325.108 15.2027L325.107 15.2007L325.107 15.1998L325.107 15.1994L325.107 15.1992L325.107 15.199C325.107 15.199 325.107 15.1989 324.861 15.2445L325.107 15.1989ZM324.095 16.2181C323.711 16.3404 323.098 16.3932 322.624 15.9013C322.62 15.8956 322.616 15.8898 322.611 15.8839C322.602 15.8709 322.592 15.8576 322.583 15.844C322.548 15.7927 322.517 15.7372 322.488 15.6817C322.485 15.674 322.482 15.6666 322.48 15.6594L322.449 15.672C322.447 15.6662 322.444 15.6603 322.442 15.6545L324.095 16.2181Z" fill="#E1B96B" stroke="#42220B" stroke-width="0.5"/>
<path d="M21.8234 6.22655L21.9015 6.37544C21.9386 6.44593 21.9413 6.53153 21.9044 6.60612C21.8758 6.66402 21.8333 6.69493 21.8169 6.70604C21.7832 6.72892 21.7489 6.74037 21.7383 6.74395L21.7376 6.74418C21.7135 6.75226 21.6811 6.76069 21.6539 6.76774C21.6501 6.76874 21.6464 6.76971 21.6428 6.77065C21.5756 6.7882 21.4812 6.81357 21.3626 6.85759C21.1267 6.94517 20.7876 7.10954 20.4016 7.43577C20.0335 7.76118 19.643 8.25608 19.3899 8.92776C19.1487 9.60131 19.0305 10.4563 19.3378 11.2881C19.6517 12.1201 20.3601 12.9141 21.3557 13.3694C22.3487 13.8184 23.6041 13.9113 24.7388 13.4287L24.7427 13.427L24.7427 13.427C25.8833 12.9645 26.8562 11.9035 27.3908 10.6093C27.6455 9.95963 27.7687 9.24893 27.7584 8.52404C27.7321 7.80475 27.5313 7.0769 27.2045 6.38606L27.2039 6.38492C26.5578 5.00151 25.3183 3.8288 23.8279 3.13905L23.8254 3.13788L23.8254 3.13786C22.3462 2.43313 20.57 2.38616 19.0056 3.07134L19.0021 3.07283L19.0021 3.07281C15.8345 4.40423 13.677 8.39731 14.6869 11.9612L14.6901 11.9727L14.6898 11.9728C14.8969 12.8634 15.3082 13.7108 15.8227 14.5009L15.8241 14.5032L15.8241 14.5032C16.3267 15.2933 16.974 16.0028 17.7029 16.6285L17.706 16.6312L17.7059 16.6312C18.4225 17.2667 19.2327 17.8079 20.0958 18.2538L20.0994 18.2557L20.0994 18.2557C20.9529 18.7147 21.867 19.0711 22.8062 19.3255L22.8088 19.3263C23.7472 19.5917 24.7027 19.7547 25.6743 19.7774C25.6743 19.7774 25.6743 19.7774 25.6744 19.7774L27.1579 19.8115L28.6339 19.6905C30.5979 19.4536 32.5403 19.0144 34.3991 18.3508L34.4048 18.3487L34.4049 18.3488C36.6953 17.5935 39.1025 16.4814 41.6326 15.3125C43.0226 14.6703 44.4496 14.011 45.9147 13.3843L45.9163 13.3837C47.9813 12.5172 50.1262 11.7468 52.2996 11.2315L52.3084 11.2295L52.3085 11.2296C52.8521 11.1213 53.3937 11.014 53.9293 10.9087L53.9364 10.9073L53.9364 10.9074C54.3018 10.8464 54.6774 10.8087 55.0403 10.7722C55.2193 10.7543 55.3953 10.7366 55.5654 10.7166C56.6563 10.579 57.7524 10.6117 58.7821 10.7067C62.9578 11.0844 66.3662 13.0233 68.1063 15.0071C68.9921 16 69.5036 16.908 69.777 17.5661C69.9132 17.8942 69.9921 18.1644 70.0274 18.3551C70.0444 18.4468 70.0543 18.5351 70.0493 18.6071C70.0474 18.6343 70.0415 18.7032 70 18.7677C69.9756 18.8055 69.9272 18.8593 69.8456 18.8812C69.7989 18.8938 69.7562 18.8919 69.7204 18.884C69.66 18.8742 69.6129 18.8478 69.5828 18.8271C69.5431 18.7998 69.5102 18.7667 69.4842 18.7375C69.4324 18.679 69.3784 18.6014 69.3239 18.5182C69.2773 18.447 69.2246 18.3628 69.1667 18.2703C69.1553 18.2522 69.1438 18.2337 69.1321 18.215C69.0596 18.0994 68.9777 17.9696 68.8841 17.8273C68.5105 17.2594 67.9487 16.4894 67.0856 15.6754L67.0853 15.6751C65.3919 14.0725 62.3344 12.472 58.5966 12.2018C57.661 12.1356 56.71 12.1155 55.7409 12.2477L55.738 12.2481C55.5539 12.271 55.373 12.2911 55.1935 12.3109C54.8778 12.3459 54.5662 12.3804 54.2486 12.4293C53.9096 12.4992 53.5687 12.569 53.2263 12.6392C53.066 12.672 52.9054 12.705 52.7445 12.738C50.742 13.2176 48.7287 13.9275 46.7538 14.7513C45.3126 15.3678 43.876 16.0323 42.4537 16.6903C40.0008 17.825 37.5904 18.94 35.2716 19.7551C33.3243 20.4409 31.2829 20.9726 29.1762 21.2657L29.1622 21.2676L29.1622 21.2672L27.585 21.3965C27.3046 21.4274 27.0262 21.4256 26.7583 21.4172C26.6739 21.4146 26.5914 21.4113 26.5101 21.4081C26.3276 21.4009 26.1512 21.3939 25.9723 21.3946C25.9715 21.3946 25.9708 21.3946 25.9701 21.3946L25.9691 21.1446C24.9075 21.1668 23.8277 20.9675 22.7894 20.7226L21.8234 6.22655ZM21.8234 6.22655L21.656 6.24283L21.6802 6.49165M21.8234 6.22655L21.6802 6.49165M21.6802 6.49165L21.6559 6.24283L21.6559 6.24284L21.6557 6.24285L21.6554 6.24289L21.6546 6.24297L21.6522 6.24321L21.6451 6.244L21.6206 6.24701C21.5999 6.24972 21.5702 6.25396 21.5318 6.2603C21.455 6.27299 21.3434 6.29409 21.1987 6.32831L21.1888 6.33062L21.1793 6.33373C20.8952 6.42557 20.4574 6.59009 19.99 6.96701L19.9893 6.96765C19.5326 7.33904 19.0423 7.90968 18.722 8.70459L18.7214 8.70595C18.4132 9.48396 18.234 10.5293 18.6062 11.608L18.6062 11.608L18.607 11.6102C18.9808 12.6617 19.846 13.6627 21.0611 14.2089C22.2506 14.7618 23.7993 14.9041 25.2312 14.301L25.2312 14.301L25.2342 14.2997C26.6308 13.6898 27.8445 12.4518 28.4523 10.8756C29.0903 9.30668 29.0496 7.35311 28.1962 5.70626C27.3913 4.0583 25.9537 2.66651 24.1574 1.88457C23.2608 1.49213 22.2661 1.25172 21.2368 1.24435M21.6802 6.49165L13.3035 12.6547C12.6586 10.5344 12.9213 8.19278 13.8613 6.28403C14.7839 4.36777 16.3302 2.77157 18.2282 1.91129L18.2292 1.91086C19.1753 1.48677 20.1995 1.23593 21.2368 1.24435M21.2368 1.24435C21.2369 1.24435 21.2369 1.24435 21.2369 1.24435L21.2349 1.49434L21.2367 1.24434C21.2367 1.24435 21.2368 1.24435 21.2368 1.24435ZM69.5505 18.5722C69.5502 18.5763 69.5499 18.5752 69.5506 18.5703L69.5505 18.5722Z" fill="#E1B96B" stroke="#42220B" stroke-width="0.5"/>
<path d="M63.8778 17.2714C63.9399 17.2205 63.9801 17.1447 63.9822 17.0584C63.984 16.985 63.9578 16.927 63.9389 16.8934C63.9017 16.8272 63.8434 16.7701 63.7925 16.7256C63.6838 16.6305 63.5162 16.515 63.3058 16.3837C62.8808 16.1185 62.237 15.7619 61.4217 15.334C60.8482 15.0274 60.1505 14.7581 59.3989 14.4679C59.068 14.3402 58.7268 14.2084 58.381 14.0677C57.951 13.88 57.4751 13.7473 57.0038 13.6159C56.8267 13.5665 56.6503 13.5174 56.4773 13.4655L56.4773 13.4655L56.4718 13.4639C56.2602 13.4058 56.0432 13.3433 55.8219 13.2795C55.3628 13.1472 54.8848 13.0095 54.3965 12.894L54.3966 12.8939L54.3908 12.8927C51.4844 12.2764 48.1529 11.8719 44.8418 11.9714C44.3015 11.9749 43.7526 12.0253 43.2192 12.0743C42.9358 12.1004 42.6568 12.126 42.3858 12.144L42.3858 12.1439L42.3811 12.1443C42.0709 12.1708 41.7619 12.1966 41.4544 12.2223C41.3619 12.2301 41.2694 12.2378 41.1771 12.2455L41.1698 12.2461L41.1626 12.2472C40.905 12.2841 40.6449 12.3302 40.391 12.3753C40.2523 12.3999 40.1155 12.4241 39.982 12.4464L39.9794 12.4468C39.6015 12.5139 39.2265 12.5804 38.8555 12.6461C38.4662 12.7151 38.0813 12.7833 37.7023 12.8506L37.6917 12.8525L37.6813 12.8553C37.4709 12.9117 37.2623 12.9677 37.0556 13.0232C36.5503 13.1588 36.0564 13.2914 35.5746 13.4199L35.5746 13.4199C32.8197 14.1553 30.1149 15.164 27.4372 16.1627C27.2895 16.2177 27.1418 16.2728 26.9943 16.3278C24.1672 17.3812 21.3684 18.4061 18.5455 19.0836L18.5446 19.0839C15.7321 19.7699 12.9102 20.1306 10.2359 19.9598C8.89646 19.856 7.59046 19.6857 6.41377 19.3073L6.41386 19.3071L6.40252 19.304C5.90982 19.1707 5.46859 18.9581 5.00835 18.7363C4.92446 18.6959 4.83994 18.6552 4.75435 18.6146C4.64214 18.5342 4.53178 18.4581 4.42416 18.3838C4.04841 18.1244 3.70604 17.8881 3.43462 17.5782L3.43466 17.5782L3.43097 17.5741C2.6923 16.7671 2.27274 15.7462 2.28209 14.7807C2.31863 13.8363 2.82252 12.9794 3.54555 12.5298L3.54564 12.53L3.55316 12.5249C4.25921 12.0495 5.1431 11.9801 5.69769 12.3495L5.69765 12.3496L5.70291 12.3529C6.30405 12.7321 6.64237 13.4192 6.67767 14.0202L6.67767 14.0202L6.67778 14.022C6.6973 14.3193 6.64017 14.5975 6.52859 14.8237C6.46723 14.9446 6.41891 15.0118 6.29776 15.154L6.29773 15.1539L6.29489 15.1574C6.22901 15.2375 6.20113 15.3294 6.18725 15.3824C6.18146 15.4045 6.17636 15.4273 6.17297 15.4425C6.17216 15.4462 6.17144 15.4494 6.17084 15.452C6.17043 15.4538 6.17006 15.4554 6.16973 15.4568C6.14686 15.501 6.13063 15.532 6.11325 15.5587C6.00204 15.6868 5.84557 15.7607 5.6699 15.7913C5.48828 15.8228 5.30298 15.8044 5.16868 15.7639L5.16877 15.7636L5.15652 15.7606C4.86891 15.6895 4.72749 15.5101 4.68144 15.4061L4.68146 15.4061L4.68006 15.4031C4.65138 15.3406 4.64001 15.2909 4.63365 15.2555C4.6335 15.2547 4.63296 15.2515 4.63219 15.2468C4.6297 15.2318 4.62479 15.2023 4.62286 15.1929C4.62281 15.1927 4.62275 15.1923 4.62268 15.192C4.62088 15.1832 4.61396 15.1492 4.59555 15.1138C4.58536 15.0942 4.56193 15.0547 4.51597 15.0221C4.4618 14.9835 4.39475 14.9677 4.32887 14.9781L4.15687 15.0053L63.7193 17.078M63.8778 17.2714L63.7193 17.078M63.8778 17.2714C63.878 17.2712 63.8783 17.271 63.8785 17.2708L63.7193 17.078M63.8778 17.2714C63.8265 17.3135 63.771 17.3304 63.7333 17.3381C63.6935 17.3462 63.6545 17.3477 63.6207 17.3469C63.5535 17.3454 63.4775 17.3337 63.399 17.3171C63.2403 17.2835 63.0324 17.2216 62.7852 17.1373C62.2891 16.9682 61.6054 16.6991 60.778 16.3526M63.7193 17.078C63.6886 17.1034 63.6089 17.1031 63.4842 17.0792C63.4888 17.1127 63.5005 17.1339 63.5032 17.1386C63.5047 17.1413 63.5056 17.1427 63.5055 17.1428C63.5053 17.1429 63.4952 17.1298 63.4633 17.102C63.4505 17.0907 63.4359 17.0786 63.4196 17.0657C62.9761 16.9652 62.0835 16.6284 60.8715 16.1207M60.778 16.3526C60.779 16.353 60.78 16.3533 60.7811 16.3537L60.8715 16.1207M60.778 16.3526C60.777 16.3521 60.7759 16.3517 60.7749 16.3513L60.8715 16.1207M60.778 16.3526C60.3098 16.1709 59.7922 16.0014 59.2259 15.8159C58.779 15.6695 58.3018 15.5132 57.7944 15.3331L57.7869 15.3305L57.787 15.3304C57.525 15.228 57.2423 15.152 56.9389 15.0782C56.8605 15.0592 56.7804 15.0402 56.6989 15.0209C56.4716 14.9671 56.2345 14.9109 55.9991 14.8446M60.8715 16.1207C60.4005 15.9379 59.8683 15.7634 59.2922 15.5745C58.8446 15.4278 58.3705 15.2723 57.878 15.0975C57.5256 14.9598 57.1443 14.8695 56.752 14.7765C56.5247 14.7227 56.2937 14.668 56.0624 14.6027M63.5269 16.8329C63.179 16.5727 62.403 16.1314 61.3047 15.555C60.745 15.2556 60.0704 14.9952 59.3266 14.7082C58.9917 14.5789 58.6427 14.4442 58.2838 14.298L63.5269 16.8329ZM63.5269 16.8329C63.5784 16.8429 63.6125 16.8466 63.6322 16.8471C63.6398 16.8473 63.6418 16.8468 63.6397 16.8471C63.6387 16.8472 63.6366 16.8475 63.6338 16.8481C63.628 16.8493 63.6053 16.8543 63.5779 16.8722L63.5269 16.8329ZM55.9991 14.8446C56.0007 14.8449 56.0022 14.8453 56.0038 14.8457L56.0624 14.6027M55.9991 14.8446C55.9976 14.8441 55.996 14.8437 55.9945 14.8432L56.0624 14.6027M55.9991 14.8446C55.7554 14.7857 55.5156 14.7227 55.2753 14.6595C54.8711 14.5533 54.4657 14.4467 54.0385 14.3591M56.0624 14.6027C55.8276 14.546 55.5905 14.4837 55.3502 14.4206C54.9381 14.3124 54.5167 14.2017 54.0819 14.1128M54.0819 14.1128L54.0454 14.3602C54.0431 14.3598 54.0408 14.3595 54.0385 14.3591M54.0819 14.1128L54.0319 14.3578C54.0341 14.3582 54.0363 14.3587 54.0385 14.3591M54.0819 14.1128L45.0572 13.5603M54.0385 14.3591C53.5843 14.2919 53.1311 14.2106 52.6752 14.1287C51.706 13.9548 50.7248 13.7787 49.6955 13.7311L49.6908 13.7309L49.6908 13.7308C49.3971 13.7117 49.113 13.6839 48.8326 13.6565C48.3529 13.6096 47.8841 13.5637 47.3969 13.5644L47.3963 13.5644L47.3858 13.5644C46.6121 13.5634 45.8341 13.5623 45.0572 13.5603M45.0572 13.5603C45.0592 13.5602 45.0612 13.5602 45.0633 13.5601L45.0518 13.3103M45.0572 13.5603L47.3966 13.3144L47.3862 13.3144C46.6103 13.3134 45.8305 13.3123 45.0518 13.3103M45.0572 13.5603C45.0552 13.5603 45.0531 13.5603 45.0511 13.5603L45.0518 13.3103M45.0572 13.5603C41.9479 13.7038 38.8665 14.0818 36.2573 14.8999L36.2466 14.9033L36.2465 14.903C33.6414 15.5932 31.0447 16.5468 28.4146 17.5126C28.2049 17.5896 27.9949 17.6667 27.7847 17.7438C24.9436 18.7852 22.0622 19.8167 19.1133 20.5083M45.0518 13.3103C41.9307 13.454 38.8228 13.8335 36.1825 14.6614C33.5656 15.3547 30.9582 16.3122 28.3306 17.2771C25.282 18.3966 22.206 19.5262 19.0562 20.2649M19.1133 20.5083C19.1133 20.5083 19.1134 20.5082 19.1134 20.5082L19.0562 20.2649M19.1133 20.5083C16.1778 21.1984 13.183 21.556 10.3156 21.3369L10.315 21.3369C8.89071 21.2246 7.49332 21.0007 6.1702 20.5809C4.81833 20.1851 3.59532 19.4404 2.64661 18.4792L2.63883 18.4713L2.63901 18.4712C1.72694 17.4612 1.16538 16.165 1.19522 14.8597C1.21822 13.5453 1.95458 12.3507 2.9406 11.738C3.90461 11.1139 5.19678 10.9611 6.13035 11.5675L6.13164 11.5683L6.13163 11.5683C7.01617 12.1506 7.4342 13.1011 7.46949 13.9404L7.46952 13.9412C7.48629 14.3715 7.39501 14.7891 7.20891 15.1406L7.20668 15.1448L7.20664 15.1448C7.11693 15.3067 6.99859 15.4726 6.87593 15.5936C6.8757 15.5944 6.87545 15.5953 6.8752 15.5962L6.86769 15.6228C6.86209 15.6422 6.85431 15.6678 6.84299 15.6964C6.82063 15.7608 6.78909 15.8137 6.76517 15.8514C6.75205 15.872 6.74254 15.8863 6.73476 15.8981C6.72401 15.9142 6.71658 15.9254 6.70751 15.9414L6.69368 15.9658L6.67479 15.9865C6.13912 16.574 5.40227 16.4992 4.99488 16.3638C4.52177 16.2175 4.25531 15.8787 4.16695 15.6153C4.11459 15.479 4.11475 15.3651 4.11482 15.308C4.11482 15.3075 4.11482 15.3069 4.11482 15.3064L3.07451 11.9492C2.15763 12.5179 1.46643 13.6362 1.44517 14.8648C1.41684 16.0954 1.94713 17.3321 2.82455 18.3036C3.74446 19.2357 4.93155 19.9582 6.24312 20.3418C7.54356 20.7547 8.92192 20.9763 10.3347 21.0876C13.1693 21.3042 16.1376 20.951 19.0562 20.2649M19.1133 20.5083L19.0562 20.2649M54.339 13.1373C51.4467 12.524 48.1343 12.1222 44.8463 12.2214C44.3145 12.2247 43.7853 12.2734 43.2587 12.3219C42.9725 12.3483 42.687 12.3746 42.4023 12.3934L54.339 13.1373ZM54.339 13.1373C54.8215 13.2514 55.289 13.3862 55.7448 13.5175M54.339 13.1373L55.7448 13.5175M3.24655 17.7429C2.47034 16.8949 2.02101 15.813 2.03214 14.7747C2.0706 13.7495 2.61607 12.8134 3.41354 12.3175C4.17558 11.8044 5.17241 11.6992 5.83629 12.1414L3.24655 17.7429ZM3.24655 17.7429C3.54045 18.0785 3.91733 18.3384 4.29854 18.6012C4.40827 18.6769 4.51836 18.7528 4.62694 18.8308L3.24655 17.7429ZM55.7448 13.5175C55.9677 13.5817 56.1878 13.6452 56.4055 13.705L55.7448 13.5175ZM40.4413 12.6203C40.692 12.5758 40.944 12.531 41.198 12.4946L6.33724 19.5453C7.54254 19.9329 8.87233 20.105 10.2183 20.2092C12.9254 20.3823 15.7742 20.0169 18.6038 19.3267C21.5908 18.6098 24.5475 17.5071 27.5213 16.3981C30.2018 15.3984 32.8962 14.3936 35.639 13.6615C36.1212 13.5329 36.6156 13.4002 37.1211 13.2645C37.3276 13.2091 37.5359 13.1531 37.746 13.0968C38.125 13.0295 38.5094 12.9614 38.8981 12.8925C39.2693 12.8267 39.6445 12.7602 40.0231 12.693C40.1622 12.6698 40.3015 12.6451 40.4413 12.6203ZM4.38358 15.4745C4.36478 15.4052 4.36481 15.3477 4.36483 15.3059C4.36483 15.3046 4.36483 15.3033 4.36483 15.302C4.3628 15.2504 4.36786 15.2251 4.36786 15.2251L4.38358 15.4745Z" fill="#E1B96B" stroke="#42220B" stroke-width="0.5"/>
</g>
</svg>
