<svg width="31" height="31" viewBox="0 0 31 31" fill="none" xmlns="http://www.w3.org/2000/svg">
<path d="M15.0117 11.2559C14.4023 11.2559 13.957 10.9824 13.6758 10.4355C13.5508 10.2012 13.4883 9.9668 13.4883 9.73242C13.4883 9.10742 13.7695 8.66211 14.332 8.39648C14.5508 8.28711 14.7773 8.23242 15.0117 8.23242C15.6523 8.23242 16.1055 8.51367 16.3711 9.07617C16.4648 9.29492 16.5117 9.51367 16.5117 9.73242C16.5117 10.3418 16.2461 10.7871 15.7148 11.0684C15.4961 11.1934 15.2617 11.2559 15.0117 11.2559Z" fill="black"/>
<path d="M15.0117 16.5862C14.4023 16.5862 13.957 16.3127 13.6758 15.7659C13.5508 15.5315 13.4883 15.2971 13.4883 15.0627C13.4883 14.4377 13.7695 13.9924 14.332 13.7268C14.5508 13.6174 14.7773 13.5627 15.0117 13.5627C15.6523 13.5627 16.1055 13.844 16.3711 14.4065C16.4648 14.6252 16.5117 14.844 16.5117 15.0627C16.5117 15.6721 16.2461 16.1174 15.7148 16.3987C15.4961 16.5237 15.2617 16.5862 15.0117 16.5862Z" fill="black"/>
<path d="M15.0117 21.9165C14.4023 21.9165 13.957 21.643 13.6758 21.0962C13.5508 20.8618 13.4883 20.6274 13.4883 20.393C13.4883 19.768 13.7695 19.3227 14.332 19.0571C14.5508 18.9477 14.7773 18.893 15.0117 18.893C15.6523 18.893 16.1055 19.1743 16.3711 19.7368C16.4648 19.9555 16.5117 20.1743 16.5117 20.393C16.5117 21.0024 16.2461 21.4477 15.7148 21.729C15.4961 21.854 15.2617 21.9165 15.0117 21.9165Z" fill="black"/>
</svg>
