<svg width="28" height="32" viewBox="0 0 28 32" fill="none" xmlns="http://www.w3.org/2000/svg">
<path fill-rule="evenodd" clip-rule="evenodd" d="M1.50033 1C1.19341 1 0.958941 1.27396 1.00633 1.57719L3.85077 19.7803C3.86274 19.8569 3.86875 19.9343 3.86875 20.0119V25.3306C3.86875 25.6068 4.09261 25.8306 4.36875 25.8306H23.6265C23.9026 25.8306 24.1265 25.6068 24.1265 25.3306V20.0119C24.1265 19.9343 24.1325 19.8569 24.1445 19.7803L26.9889 1.5772C27.0363 1.27396 26.8018 1 26.4949 1H1.50033ZM0.0183156 1.73158C-0.123838 0.821864 0.579575 0 1.50033 0H26.4949C27.4157 0 28.1191 0.821866 27.9769 1.73158L25.1325 19.9347C25.1285 19.9602 25.1265 19.986 25.1265 20.0119V25.3306C25.1265 25.775 24.9333 26.1742 24.6262 26.4489V32H3.36849V26.4484C3.06177 26.1738 2.86875 25.7747 2.86875 25.3306V20.0119C2.86875 19.986 2.86675 19.9602 2.86276 19.9347L0.0183156 1.73158ZM6.65832 19.9342V23.0203H21.3363V19.9342L22.8547 10.9668C22.8547 10.9668 18.8779 7.88269 13.9973 10.9668C9.11668 14.0509 5.13991 10.9668 5.13991 10.9668L6.65832 19.9342Z" fill="#E4DFD5"/>
</svg>
