<svg width="43" height="37" viewBox="0 0 43 37" fill="none" xmlns="http://www.w3.org/2000/svg">
<path d="M21.3488 34.3721C10.1105 34.3721 1 30.3083 1 25.2952C1 22.3612 4.12085 19.7523 8.96259 18.093M34.1143 18.2262C38.7392 19.89 41.6977 22.4385 41.6977 25.2952C41.6977 29.4277 35.5068 32.9151 27.0364 34.0128" stroke="#E1B96B" stroke-width="2"/>
<path d="M23.3614 34.6801L21.1253 36V34.6801V33.3602L23.3614 34.6801Z" stroke="#E1B96B" stroke-width="2" stroke-linejoin="round"/>
<path d="M21.7961 12.4394L9.49738 6.71968V22.1188L21.7961 28.0585V12.4394Z" stroke="#E1B96B" stroke-width="2" stroke-linejoin="round"/>
<path d="M21.7961 12.4394L33.6476 6.71968V22.1188L21.7961 28.0585V12.4394Z" stroke="#E1B96B" stroke-width="2" stroke-linejoin="round"/>
<path d="M21.7961 12.4394L9.49734 6.71968L21.7961 1L33.6476 6.71968L21.7961 12.4394Z" stroke="#E1B96B" stroke-width="2" stroke-linejoin="round"/>
</svg>
