<svg width="16" height="14" viewBox="0 0 16 14" fill="none" xmlns="http://www.w3.org/2000/svg">
<path d="M15.5 12.25C15.5 12.8023 15.0523 13.25 14.5 13.25C10.1667 13.25 5.83333 13.25 1.5 13.25C0.947715 13.25 0.5 12.8064 0.5 12.2541C0.5 10.3911 0.5 6.39853 0.5 4.52732C0.5 3.97504 0.94717 3.52778 1.49945 3.52778C2.11105 3.52778 2.8751 3.52778 3.40449 3.52778C3.72234 3.52778 4.02036 3.37667 4.20883 3.12073L5.65481 1.15705C5.84328 0.901105 6.1422 0.75 6.46005 0.75H9.53995C9.8578 0.75 10.1567 0.901105 10.3452 1.15705L11.7912 3.12073C11.9796 3.37667 12.2777 3.52778 12.5955 3.52778C13.1249 3.52778 13.889 3.52778 14.5005 3.52778C15.0528 3.52778 15.5 3.97549 15.5 4.52778V12.25Z" stroke="white" stroke-linecap="round" stroke-linejoin="round"/>
<path d="M7.99992 10.4722C9.50615 10.4722 10.7272 9.22854 10.7272 7.69442C10.7272 6.16029 9.50615 4.91664 7.99992 4.91664C6.49369 4.91664 5.27264 6.16029 5.27264 7.69442C5.27264 9.22854 6.49369 10.4722 7.99992 10.4722Z" stroke="white" stroke-linecap="round" stroke-linejoin="round"/>
</svg>
