<svg width="42" height="42" viewBox="0 0 42 42" fill="none" xmlns="http://www.w3.org/2000/svg">
<path fill-rule="evenodd" clip-rule="evenodd" d="M21 41.0009C9.95356 41.0009 1 32.0456 1 21C1 9.95442 9.95356 1 21 1C32.0456 1 41 9.95442 41 21C41 32.0456 32.0456 41.0009 21 41.0009Z" stroke="#634B1C" stroke-width="2"/>
<path fill-rule="evenodd" clip-rule="evenodd" d="M11.5518 27.7453C13.2676 28.8456 15.3054 29.487 17.4947 29.487C24.6928 29.487 28.7598 23.408 28.5153 17.9541C29.2712 17.4083 29.9289 16.7256 30.4498 15.9473C29.7533 16.2555 29.006 16.4638 28.2226 16.5577C29.0224 16.0781 29.6371 15.3188 29.9264 14.4123C29.1774 14.8565 28.3474 15.1794 27.4659 15.3541C26.7582 14.6 25.7509 14.1299 24.6351 14.1299C22.1325 14.1299 20.2935 16.4647 20.8583 18.8899C17.6359 18.7289 14.7793 17.1853 12.8672 14.8384C11.8522 16.5818 12.3404 18.8615 14.0674 20.016C13.4312 19.9953 12.8328 19.8206 12.3102 19.5304C12.2689 21.3272 13.556 23.0068 15.4207 23.3813C14.8749 23.5303 14.2766 23.563 13.6705 23.4476C14.1629 24.9887 15.5946 26.1079 17.2915 26.1397C15.6618 27.4173 13.6085 27.9881 11.5518 27.7453Z" fill="#634B1C"/>
</svg>
