<svg width="42" height="42" viewBox="0 0 42 42" fill="none" xmlns="http://www.w3.org/2000/svg">
<path fill-rule="evenodd" clip-rule="evenodd" d="M21.0004 41C9.9551 41 1 32.0458 1 20.9996C1 9.95421 9.9551 1 21.0004 1C32.0458 1 41 9.95421 41 20.9996C41 32.0458 32.0458 41 21.0004 41Z" stroke="#634B1C" stroke-width="2"/>
<path fill-rule="evenodd" clip-rule="evenodd" d="M12.4648 28.8924H16.1357V17.0361H12.4648V28.8924Z" fill="#634B1C"/>
<path fill-rule="evenodd" clip-rule="evenodd" d="M14.2818 15.4829C15.481 15.4829 16.4521 14.5023 16.4521 13.2945C16.4521 12.0875 15.481 11.1069 14.2818 11.1069C13.0834 11.1069 12.1123 12.0875 12.1123 13.2945C12.1123 14.5023 13.0834 15.4829 14.2818 15.4829Z" fill="#634B1C"/>
<path fill-rule="evenodd" clip-rule="evenodd" d="M22.0015 22.6687C22.0015 21.0011 22.7695 20.0085 24.2382 20.0085C25.5872 20.0085 26.2363 20.9615 26.2363 22.6687C26.2363 24.3758 26.2363 28.8921 26.2363 28.8921H29.8891C29.8891 28.8921 29.8891 24.5609 29.8891 21.385C29.8891 18.2092 28.0881 16.6733 25.5743 16.6733C23.0604 16.6733 22.0015 18.6327 22.0015 18.6327V17.0358H18.4805V28.8921H22.0015C22.0015 28.8921 22.0015 24.4955 22.0015 22.6687Z" fill="#634B1C"/>
</svg>
