<svg width="414" height="258" viewBox="0 0 414 258" fill="none" xmlns="http://www.w3.org/2000/svg">
<path d="M197 136H14V243H197V136Z" fill="url(#paint0_radial)"/>
<path opacity="0.7" d="M182 136H197V243H182V136Z" fill="url(#paint1_linear)"/>
<path d="M14 243H12V136H14V243Z" fill="url(#paint2_linear)"/>
<path d="M12 136H0V258H12V136Z" fill="#E1B96B"/>
<path d="M33 136H14V256H33V136Z" fill="url(#paint3_linear)"/>
<path d="M199 243H198V258H199L203 254V246.5L199 243Z" fill="white"/>
<path d="M10 243H11V258H10L6 254V246.5L10 243Z" fill="white"/>
<path d="M11.3954 244H197.605L201 247.183V250.5V253.817L197.605 257H11.3954L8 253.817L8 250.5L8 247.183L11.3954 244Z" fill="#AF8C56" stroke="#3F2103" stroke-width="2"/>
<g opacity="0.5">
<path d="M9 253.5L200 253.5" stroke="white" stroke-width="0.5"/>
<path d="M9 253L200 253" stroke="black" stroke-width="0.5"/>
<path d="M9 250.5L200 250.5" stroke="white" stroke-width="0.5"/>
<path d="M9 250L200 250" stroke="black" stroke-width="0.5"/>
<path d="M9 247.5L200 247.5" stroke="white" stroke-width="0.5"/>
<path d="M9 247L200 247" stroke="black" stroke-width="0.5"/>
</g>
<rect opacity="0.5" x="12" y="136" width="185" height="24" fill="url(#paint4_linear)"/>
<path d="M197 0H14V121H197V0Z" fill="url(#paint5_radial)"/>
<path opacity="0.7" d="M182 0H197V121H182V0Z" fill="url(#paint6_linear)"/>
<path d="M14 121H12V0H14V121Z" fill="url(#paint7_linear)"/>
<path d="M12 0H0V136H12V0Z" fill="#E1B96B"/>
<path d="M37 0H14V121H37V0Z" fill="url(#paint8_linear)"/>
<path d="M199 121H198V136H199L203 132V124.5L199 121Z" fill="white"/>
<path d="M10 121H11V136H10L6 132V124.5L10 121Z" fill="white"/>
<path d="M11.3954 122H197.605L201 125.183V128.5V131.817L197.605 135H11.3954L8 131.817L8 128.5L8 125.183L11.3954 122Z" fill="#AF8C56" stroke="#3F2103" stroke-width="2"/>
<g opacity="0.5">
<path d="M9 131.5L200 131.5" stroke="white" stroke-width="0.5"/>
<path d="M9 131L200 131" stroke="black" stroke-width="0.5"/>
<path d="M9 128.5L200 128.5" stroke="white" stroke-width="0.5"/>
<path d="M9 128L200 128" stroke="black" stroke-width="0.5"/>
<path d="M9 125.5L200 125.5" stroke="white" stroke-width="0.5"/>
<path d="M9 125L200 125" stroke="black" stroke-width="0.5"/>
</g>
<rect opacity="0.5" x="12" width="185" height="23" fill="url(#paint9_linear)"/>
<path d="M111 135H99V242H111V135Z" fill="#E1B96B"/>
<path opacity="0.7" d="M84 135H99V242H84V135Z" fill="url(#paint10_linear)"/>
<path opacity="0.7" d="M126 135H111V242H126V135Z" fill="url(#paint11_linear)"/>
<path d="M217 136H400V243H217V136Z" fill="url(#paint12_radial)"/>
<path opacity="0.7" d="M232 136H217V243H232V136Z" fill="url(#paint13_linear)"/>
<path d="M400 243H402V136H400V243Z" fill="url(#paint14_linear)"/>
<path d="M402 136H414V258H402V136Z" fill="#E1B96B"/>
<path d="M381 136H400V256H381V136Z" fill="url(#paint15_linear)"/>
<path d="M404 243H403V258H404L408 254V246.5L404 243Z" fill="white"/>
<path d="M215 243H216V258H215L211 254V246.5L215 243Z" fill="white"/>
<path d="M216.395 244H402.605L406 247.183V250.5V253.817L402.605 257H216.395L213 253.817L213 250.5L213 247.183L216.395 244Z" fill="#AF8C56" stroke="#3F2103" stroke-width="2"/>
<g opacity="0.5">
<path d="M214 253.5L405 253.5" stroke="white" stroke-width="0.5"/>
<path d="M214 253L405 253" stroke="black" stroke-width="0.5"/>
<path d="M214 250.5L405 250.5" stroke="white" stroke-width="0.5"/>
<path d="M214 250L405 250" stroke="black" stroke-width="0.5"/>
<path d="M214 247.5L405 247.5" stroke="white" stroke-width="0.5"/>
<path d="M214 247L405 247" stroke="black" stroke-width="0.5"/>
</g>
<rect opacity="0.5" width="185" height="24" transform="matrix(-1 0 0 1 402 136)" fill="url(#paint16_linear)"/>
<path d="M304 136H316V243H304V136Z" fill="#E1B96B"/>
<path opacity="0.7" d="M331 136H316V243H331V136Z" fill="url(#paint17_linear)"/>
<path opacity="0.7" d="M289 136H304V243H289V136Z" fill="url(#paint18_linear)"/>
<path d="M217 0H400V121H217V0Z" fill="url(#paint19_radial)"/>
<path opacity="0.7" d="M232 0H217V121H232V0Z" fill="url(#paint20_linear)"/>
<path d="M400 121H402V0H400V121Z" fill="url(#paint21_linear)"/>
<path d="M402 0H414V136H402V0Z" fill="#E1B96B"/>
<path d="M377 0H400V121H377V0Z" fill="url(#paint22_linear)"/>
<path d="M404 121H403V136H404L408 132V124.5L404 121Z" fill="white"/>
<path d="M215 121H216V136H215L211 132V124.5L215 121Z" fill="white"/>
<path d="M216.396 122H402.605L406 125.183V128.5V131.817L402.605 135H216.396L213 131.817L213 128.5L213 125.183L216.396 122Z" fill="#AF8C56" stroke="#3F2103" stroke-width="2"/>
<g opacity="0.5">
<path d="M214 131.5L405 131.5" stroke="white" stroke-width="0.5"/>
<path d="M214 131L405 131" stroke="black" stroke-width="0.5"/>
<path d="M214 128.5L405 128.5" stroke="white" stroke-width="0.5"/>
<path d="M214 128L405 128" stroke="black" stroke-width="0.5"/>
<path d="M214 125.5L405 125.5" stroke="white" stroke-width="0.5"/>
<path d="M214 125L405 125" stroke="black" stroke-width="0.5"/>
</g>
<rect opacity="0.5" width="185" height="23" transform="matrix(-1 0 0 1 402 0)" fill="url(#paint23_linear)"/>
<defs>
<radialGradient id="paint0_radial" cx="0" cy="0" r="1" gradientUnits="userSpaceOnUse" gradientTransform="translate(105.5 189.5) rotate(154.336) scale(123.53 72.9244)">
<stop stop-color="#FFDA94"/>
<stop offset="1" stop-color="#B48427"/>
</radialGradient>
<linearGradient id="paint1_linear" x1="197" y1="189.5" x2="182" y2="189.5" gradientUnits="userSpaceOnUse">
<stop stop-color="#634B1C"/>
<stop offset="1" stop-color="#BC974F" stop-opacity="0"/>
</linearGradient>
<linearGradient id="paint2_linear" x1="15" y1="186.647" x2="12" y2="186.647" gradientUnits="userSpaceOnUse">
<stop stop-color="#473512"/>
<stop offset="1" stop-color="#BC974F"/>
</linearGradient>
<linearGradient id="paint3_linear" x1="14" y1="196" x2="33" y2="196" gradientUnits="userSpaceOnUse">
<stop stop-color="#634B1C"/>
<stop offset="1" stop-color="#BC974F" stop-opacity="0"/>
</linearGradient>
<linearGradient id="paint4_linear" x1="104.5" y1="130" x2="104.5" y2="160" gradientUnits="userSpaceOnUse">
<stop/>
<stop offset="1" stop-opacity="0"/>
</linearGradient>
<radialGradient id="paint5_radial" cx="0" cy="0" r="1" gradientUnits="userSpaceOnUse" gradientTransform="translate(105.5 60.5) rotate(151.482) scale(126.719 80.3907)">
<stop stop-color="#FFDA94"/>
<stop offset="1" stop-color="#B48427"/>
</radialGradient>
<linearGradient id="paint6_linear" x1="197" y1="60.5" x2="182" y2="60.5" gradientUnits="userSpaceOnUse">
<stop stop-color="#634B1C"/>
<stop offset="1" stop-color="#BC974F" stop-opacity="0"/>
</linearGradient>
<linearGradient id="paint7_linear" x1="15" y1="57.2733" x2="12" y2="57.2733" gradientUnits="userSpaceOnUse">
<stop stop-color="#473512"/>
<stop offset="1" stop-color="#BC974F"/>
</linearGradient>
<linearGradient id="paint8_linear" x1="14" y1="60.5" x2="37" y2="60.5" gradientUnits="userSpaceOnUse">
<stop stop-color="#634B1C"/>
<stop offset="1" stop-color="#BC974F" stop-opacity="0"/>
</linearGradient>
<linearGradient id="paint9_linear" x1="104.5" y1="-5.75" x2="104.5" y2="23" gradientUnits="userSpaceOnUse">
<stop/>
<stop offset="1" stop-opacity="0"/>
</linearGradient>
<linearGradient id="paint10_linear" x1="99" y1="188.5" x2="84" y2="188.5" gradientUnits="userSpaceOnUse">
<stop stop-color="#634B1C"/>
<stop offset="1" stop-color="#BC974F" stop-opacity="0"/>
</linearGradient>
<linearGradient id="paint11_linear" x1="111" y1="188.5" x2="126" y2="188.5" gradientUnits="userSpaceOnUse">
<stop stop-color="#634B1C"/>
<stop offset="1" stop-color="#BC974F" stop-opacity="0"/>
</linearGradient>
<radialGradient id="paint12_radial" cx="0" cy="0" r="1" gradientUnits="userSpaceOnUse" gradientTransform="translate(308.5 189.5) rotate(25.6641) scale(123.53 72.9244)">
<stop stop-color="#FFDA94"/>
<stop offset="1" stop-color="#B48427"/>
</radialGradient>
<linearGradient id="paint13_linear" x1="217" y1="189.5" x2="232" y2="189.5" gradientUnits="userSpaceOnUse">
<stop stop-color="#634B1C"/>
<stop offset="1" stop-color="#BC974F" stop-opacity="0"/>
</linearGradient>
<linearGradient id="paint14_linear" x1="399" y1="186.647" x2="402" y2="186.647" gradientUnits="userSpaceOnUse">
<stop stop-color="#473512"/>
<stop offset="1" stop-color="#BC974F"/>
</linearGradient>
<linearGradient id="paint15_linear" x1="400" y1="196" x2="381" y2="196" gradientUnits="userSpaceOnUse">
<stop stop-color="#634B1C"/>
<stop offset="1" stop-color="#BC974F" stop-opacity="0"/>
</linearGradient>
<linearGradient id="paint16_linear" x1="92.5" y1="-6" x2="92.5" y2="24" gradientUnits="userSpaceOnUse">
<stop/>
<stop offset="1" stop-opacity="0"/>
</linearGradient>
<linearGradient id="paint17_linear" x1="316" y1="189.5" x2="331" y2="189.5" gradientUnits="userSpaceOnUse">
<stop stop-color="#634B1C"/>
<stop offset="1" stop-color="#BC974F" stop-opacity="0"/>
</linearGradient>
<linearGradient id="paint18_linear" x1="304" y1="189.5" x2="289" y2="189.5" gradientUnits="userSpaceOnUse">
<stop stop-color="#634B1C"/>
<stop offset="1" stop-color="#BC974F" stop-opacity="0"/>
</linearGradient>
<radialGradient id="paint19_radial" cx="0" cy="0" r="1" gradientUnits="userSpaceOnUse" gradientTransform="translate(308.5 60.5) rotate(28.5181) scale(126.719 80.3907)">
<stop stop-color="#FFDA94"/>
<stop offset="1" stop-color="#B48427"/>
</radialGradient>
<linearGradient id="paint20_linear" x1="217" y1="60.5" x2="232" y2="60.5" gradientUnits="userSpaceOnUse">
<stop stop-color="#634B1C"/>
<stop offset="1" stop-color="#BC974F" stop-opacity="0"/>
</linearGradient>
<linearGradient id="paint21_linear" x1="399" y1="57.2733" x2="402" y2="57.2733" gradientUnits="userSpaceOnUse">
<stop stop-color="#473512"/>
<stop offset="1" stop-color="#BC974F"/>
</linearGradient>
<linearGradient id="paint22_linear" x1="400" y1="60.5" x2="377" y2="60.5" gradientUnits="userSpaceOnUse">
<stop stop-color="#634B1C"/>
<stop offset="1" stop-color="#BC974F" stop-opacity="0"/>
</linearGradient>
<linearGradient id="paint23_linear" x1="92.5" y1="-5.75" x2="92.5" y2="23" gradientUnits="userSpaceOnUse">
<stop/>
<stop offset="1" stop-opacity="0"/>
</linearGradient>
</defs>
</svg>
